<svg xmlns="http://www.w3.org/2000/svg" viewBox="0 0 64 64" width="512" height="512"><path d="M36.535 4H45V2h-9a1 1 0 0 0-.832.445l-2 3 1.664 1.1zm-9.07 56H19v2h9a1 1 0 0 0 .832-.445l2-3-1.664-1.1zM43 24a18.779 18.779 0 0 0-9.857 2.78l-.52-.727a14.1 14.1 0 0 0 .581-1.407l3.96-.66A1 1 0 0 0 38 23v-6a1 1 0 0 0-.835-.986l-3.96-.66a14.1 14.1 0 0 0-.581-1.407l2.332-3.265a1 1 0 0 0-.107-1.288L30.606 5.15a1 1 0 0 0-1.288-.107l-3.265 2.332a14.1 14.1 0 0 0-1.407-.576l-.66-3.96A1 1 0 0 0 23 2h-6a1 1 0 0 0-.986.835l-.66 3.96a14.1 14.1 0 0 0-1.407.581l-3.265-2.332a1 1 0 0 0-1.288.107L5.15 9.394a1 1 0 0 0-.107 1.288l2.343 3.28a13.254 13.254 0 0 0-.573 1.389l-3.98.663A1 1 0 0 0 2 17v6a1 1 0 0 0 .835.986l3.978.663a14.849 14.849 0 0 0 .563 1.4l-2.332 3.27a1 1 0 0 0 .107 1.288l4.243 4.243a1 1 0 0 0 1.288.107l3.265-2.332a14.1 14.1 0 0 0 1.407.581l.66 3.96A1 1 0 0 0 17 38h6a1 1 0 0 0 .986-.835l.66-3.96a14.1 14.1 0 0 0 1.407-.581l.727.52A18.779 18.779 0 0 0 24 43a19 19 0 1 0 19-19zm-17.332 6.577a11.966 11.966 0 0 1-2.2.908 1 1 0 0 0-.7.793L22.153 36h-4.306l-.62-3.722a1 1 0 0 0-.7-.793 11.966 11.966 0 0 1-2.2-.908 1 1 0 0 0-1.054.067l-3.07 2.192-3.04-3.044 2.192-3.07a1 1 0 0 0 .067-1.054 13.512 13.512 0 0 1-.923-2.245 1 1 0 0 0-.777-.65L4 22.153v-4.306l3.722-.62a1 1 0 0 0 .777-.65 16.4 16.4 0 0 1 .947-2.289 1 1 0 0 0-.09-1.01l-2.192-3.07 3.044-3.044 3.07 2.192a1 1 0 0 0 1.054.067 11.966 11.966 0 0 1 2.2-.908 1 1 0 0 0 .7-.793L17.847 4h4.306l.62 3.722a1 1 0 0 0 .7.793 11.966 11.966 0 0 1 2.2.908 1 1 0 0 0 1.054-.067l3.07-2.192 3.044 3.044-2.192 3.07a1 1 0 0 0-.067 1.054 11.966 11.966 0 0 1 .908 2.2 1 1 0 0 0 .793.7l3.722.62v4.306l-3.722.62a1 1 0 0 0-.793.7 11.966 11.966 0 0 1-.908 2.2 1 1 0 0 0 .067 1.054l2.192 3.07-3.044 3.044-3.07-2.192a1 1 0 0 0-1.059-.077zM44 59.95V57h-2v2.95A16.994 16.994 0 0 1 26.051 44H29v-2h-2.963a16.748 16.748 0 0 1 2.372-7.693l.9.65a1 1 0 0 0 1.288-.107l4.243-4.243a1 1 0 0 0 .107-1.288l-.65-.9A16.748 16.748 0 0 1 42 26.037V29h2v-2.95A16.994 16.994 0 0 1 59.949 42H57v2h2.95A16.994 16.994 0 0 1 44 59.949zM44 31h-2v12a1 1 0 0 0 1 1h8v-2h-7zM25 17h-4v-6a1 1 0 0 0-1.91-.414l-5 11A1 1 0 0 0 15 23h4v6a1 1 0 0 0 .788.978A1.025 1.025 0 0 0 20 30a1 1 0 0 0 .91-.586l5-11A1 1 0 0 0 25 17zm-4 7.383V22a1 1 0 0 0-1-1h-3.447L19 15.617V18a1 1 0 0 0 1 1h3.447zM19 6h2v2h-2zm-9.606 4.808l1.414-1.414 1.414 1.414-1.414 1.414zM6 19h2v2H6zm3.393 10.2l1.414-1.414L12.22 29.2l-1.414 1.414zM19 32h2v2h-2zm8.778-2.808l1.414-1.414 1.414 1.414-1.414 1.414zM32 19h2v2h-2zm-4.222-8.2l1.414-1.414 1.414 1.414-1.414 1.414zM53 7a4 4 0 1 0 4 4 4 4 0 0 0-4-4zm0 6a2 2 0 1 1 2-2 2 2 0 0 1-2 2zm8.243-4.97l-.67-.167.355-.6a1 1 0 0 0-.151-1.222l-2.827-2.83a1 1 0 0 0-1.222-.151l-.6.355-.167-.67A1 1 0 0 0 55 2h-4a1 1 0 0 0-.97.757l-.167.67-.6-.355a1 1 0 0 0-1.222.151l-2.83 2.827a1 1 0 0 0-.151 1.222l.355.6-.67.167A1 1 0 0 0 44 9v4a1 1 0 0 0 .757.97l.67.167-.355.6a1 1 0 0 0 .151 1.222l2.828 2.828a1 1 0 0 0 1.222.151l.6-.355.167.67A1 1 0 0 0 51 20h4a1 1 0 0 0 .97-.757l.167-.67.6.355a1 1 0 0 0 1.222-.151l2.828-2.828a1 1 0 0 0 .151-1.222l-.355-.6.67-.167A1 1 0 0 0 62 13V9a1 1 0 0 0-.757-.97zM60 12.22l-1.22.3a1 1 0 0 0-.614 1.485l.647 1.08-1.724 1.724-1.08-.647a1 1 0 0 0-1.485.614L54.22 18h-2.44l-.3-1.22a1 1 0 0 0-1.485-.614l-1.08.647-1.724-1.724.647-1.08a1 1 0 0 0-.614-1.485L46 12.22V9.78l1.22-.3a1 1 0 0 0 .614-1.485l-.647-1.08L48.91 5.19l1.08.647a1 1 0 0 0 1.485-.615l.3-1.22h2.438l.3 1.22a1 1 0 0 0 1.485.615l1.08-.647 1.724 1.724-.647 1.08a1 1 0 0 0 .614 1.485l1.22.3zM11 49a4 4 0 1 0 4 4 4 4 0 0 0-4-4zm0 6a2 2 0 1 1 2-2 2 2 0 0 1-2 2zm7.93 1.728l-.355-.6.67-.167A1 1 0 0 0 20 55v-4a1 1 0 0 0-.757-.97l-.67-.167.355-.6a1 1 0 0 0-.151-1.222l-2.828-2.828a1 1 0 0 0-1.222-.151l-.6.355-.167-.67A1 1 0 0 0 13 44H9a1 1 0 0 0-.97.757l-.167.67-.6-.355a1 1 0 0 0-1.222.151l-2.83 2.827a1 1 0 0 0-.151 1.222l.355.6-.67.167A1 1 0 0 0 2 51v4a1 1 0 0 0 .757.97l.67.167-.355.6a1 1 0 0 0 .151 1.222l2.828 2.828a1 1 0 0 0 1.222.151l.6-.355.167.67A1 1 0 0 0 9 62h4a1 1 0 0 0 .97-.757l.167-.67.6.355a1 1 0 0 0 1.222-.151l2.828-2.828a1 1 0 0 0 .151-1.222zM18 54.22l-1.22.3a1 1 0 0 0-.614 1.485l.647 1.08-1.724 1.724-1.08-.647a1 1 0 0 0-1.485.614L12.22 60H9.78l-.3-1.22a1 1 0 0 0-1.485-.614l-1.08.647-1.73-1.724.647-1.08a1 1 0 0 0-.614-1.485L4 54.22v-2.44l1.22-.3a1 1 0 0 0 .614-1.485l-.647-1.08L6.91 47.19l1.08.647a1 1 0 0 0 1.485-.615l.3-1.22h2.438l.3 1.22a1 1 0 0 0 1.485.615l1.08-.647 1.724 1.724-.647 1.08a1 1 0 0 0 .614 1.485l1.22.3z"/></svg>