<svg xmlns="http://www.w3.org/2000/svg" width="933.333" height="469.333" viewBox="0 0 700 352" preserveAspectRatio="xMidYMid meet"><path d="M1475 3063c-79-12-232-55-311-87-359-146-636-441-749-796-42-135-44-141-55-230-62-509 174-1001 607-1263 117-71 263-129 388-154 186-36 313-37 480-1 315 67 681 306 1002 654 126 137 157 177 364 465 242 338 310 421 514 619 146 142 343 289 483 359 161 81 352 117 526 99 91-9 491-10 499-1 10 9-84 70-162 106-264 120-534 138-813 53-122-38-387-173-483-248-5-5-57-45-115-89-58-45-175-152-260-238-147-147-202-213-485-583-71-93-171-204-285-318-333-333-595-498-860-540-246-38-512 45-703 221-125 115-193 220-250 383-30 89-31 96-31 266 1 160 3 182 26 256 102 320 339 531 663 590 347 62 694-102 1096-517 91-94 147-123 230-122 108 2 204 80 226 185 24 110-13 183-165 330-331 319-602 487-930 575-82 22-122 26-257 29-88 1-173 0-190-3zm3495-388c0-3 16-12 36-20 30-12 89-15 320-15 156 0 284 4 284 8 0 29-29 32-332 32-169 0-308-2-308-5zm180-95c24-18 43-20 353-20 180 0 327 4 327 8 0 29-29 32-364 32-340 0-341 0-316-20zm100-68c0-25 30-32 133-32 98 0 108 2 105 18-3 15-18 17-121 20-64 1-117-1-117-6zm90-92c10-19 21-20 251-20 237 0 240 0 229 20-10 19-21 20-251 20-237 0-240 0-229-20zm67-67c-4-3-2-12 4-20 9-10 72-13 305-13 162 0 294 4 294 8 0 29-30 32-310 32-158 0-290-3-293-7zm76-81c-13-2-23-7-23-12 0-22 48-30 174-30 131 0 163 7 139 31-10 10-241 18-290 11zm17-91c0-5 6-14 14-20 16-13 32 2 21 19-8 12-35 13-35 1zm42-88c3-16 22-18 216-21 200-2 213-1 210 15s-22 18-216 21c-200 2-213 1-210-15zm25-69c-3-3-3-12 0-20 4-12 63-14 350-14 323 0 344 1 341 18-3 16-29 17-344 20-187 1-343 0-347-4zm20-80c-3-3-3-12 0-20 4-12 73-14 415-14 385 0 409 1 406 18-3 16-32 17-409 20-223 1-408-1-412-4zm11-80c-4-3-4-12-1-20 4-12 54-14 285-14 261 0 279 1 276 18-3 16-26 17-279 20-151 1-278 0-281-4zm9-88c-3-8-3-17 0-20 7-7 273-8 273-2 0 2-3 11-6 20-5 13-27 16-134 16-100 0-129-3-133-14zm-2-85c-3-8-3-17 1-20 3-3 215-7 470-9 415-2 465-1 470 13 4 9 5 18 2 20-2 2-214 5-471 7-392 3-468 1-472-11zm-10-82c-4-6-4-13 0-17s95-7 203-7c179 0 197 2 200 18s-11 17-197 17c-131 0-202-4-206-11zm-8-76c-4-3-7-13-7-20 0-22 84-13 88 10 3 14-4 17-36 17-21 0-42-3-45-7zm-20-80c-4-3-7-12-7-20 0-11 63-13 335-13 328 0 335 0 335 20s-7 20-328 20c-181 0-332-3-335-7zm-30-80c-4-3-7-12-7-20 0-20 256-19 263 1 3 8 3 17 0 20-9 8-248 8-256-1zm-2052-73c42-51 230-236 305-301 86-75 257-188 350-231 170-80 283-109 450-115 111-4 152-2 230 15 98 21 156 39 149 47-3 2-124 6-269 8-245 4-272 6-360 30-159 42-336 129-500 246-99 70-160 122-295 250-49 48-76 70-60 51zm2017-12c-7-7-12-16-12-20 0-5 120-7 268-6 229 3 267 5 267 18s-36 15-255 18c-191 2-259-1-268-10zm-16-78c-22-3-41-10-43-16-6-19 52-24 293-24 223 0 234 1 244 20 6 11 7 20 3 21-51 3-468 3-497-1zm-99-94c-4-9 4-16 25-20 40-8 751-8 772 0 9 3 16 12 16 20 0 21-805 21-813 0zm-66-80c-17-20 14-26 136-26 110 0 133 5 133 26 0 20-252 20-269 0zm-83-77c-42-24-11-29 185-29 197 0 227 4 227 32 0 12-392 9-412-3zm-115-81c-13-6-23-15-23-20 0-4 127-8 283-8 277 0 307 3 307 32 0 13-541 9-567-4zm-160-79c-86-25-31-29 400-29s444 1 462 20c18 20 17 20-406 19-233 0-438-5-456-10z" transform="matrix(.1 0 0 -.1 0 352)"/></svg>