<svg xmlns="http://www.w3.org/2000/svg" viewBox="0 0 169 43.53"><path d="M0 0h169v43.53H0z" fill="#fff"/><path d="M17.52 19.13a7.54 7.54 0 0 1 7.82 6.52H18.8a1.43 1.43 0 0 0-1.42-1.22c-.95 0-1.6.86-1.6 2.75s.66 2.76 1.6 2.76a1.43 1.43 0 0 0 1.42-1.23h6.54a7.54 7.54 0 0 1-7.82 6.52c-4.7 0-8-3-8-8s3.3-8.1 8-8.1zm17.25 16.1c-4.74 0-8.3-3-8.3-8s3.56-8 8.3-8 8.3 3 8.3 8.05-3.56 7.95-8.3 7.95zm0-5.35c1.08 0 2-.83 2-2.7s-.95-2.7-2-2.7-2 .84-2 2.7.88 2.7 2 2.7zm31.4-3.18a2.2 2.2 0 0 0-4.4 0V35H55.6v-8.3a2.2 2.2 0 0 0-4.4 0V35H45V19.33h6.2v2.12a5.25 5.25 0 0 1 4.54-2.23 5.61 5.61 0 0 1 5.1 2.78A6.34 6.34 0 0 1 66 19.22c4.07 0 6.32 2.64 6.32 6.7V35h-6.16zm29.98 0a2.2 2.2 0 0 0-4.4 0V35h-6.16v-8.3a2.2 2.2 0 0 0-4.4 0V35H75V19.33h6.18v2.12a5.28 5.28 0 0 1 4.54-2.23 5.62 5.62 0 0 1 5.1 2.78A6.34 6.34 0 0 1 96 19.22c4.07 0 6.32 2.64 6.32 6.7V35h-6.18zm8.86-7.37h6.18V35H105zm9.93 5.15h-2v-5.15h2v-3.8h6.18v3.8h2.56v5.15h-2.56v4.23c0 .73.33 1.06 1.14 1.06h1.48V35h-2.34c-3.68 0-6.46-1.56-6.46-6.43zM134.87 32h-8.7v-5.18l8.3-11.82h6.65v11.62h2V32h-2v3h-6.24zm.5-5.35V22l-3 4.6zm9.73 3.45c3.93-3 8.08-6.38 8.08-9.3 0-.9-.42-1.4-1.06-1.4s-1.22.67-1.1 2.3h-6c.2-5.4 3.7-7.5 7.52-7.5 5.07 0 6.88 2.87 6.88 6.1 0 4-3.07 7.4-6.3 9.44h6.38v5h-14.4z" fill="#424242"/><g fill="#6aa4d6"><path d="M17.52 29a1.17 1.17 0 0 1-.91-.42 1.19 1.19 0 0 1 .16-1.66l20.1-16.7a1.15 1.15 0 0 1 .75-.27h72a1.18 1.18 0 0 1 0 2.35H38.05L18.27 28.7a1.19 1.19 0 0 1-.75.29z"/><path d="M34.7 29a1.15 1.15 0 0 1-.9-.42 1.18 1.18 0 0 1 .15-1.66l20.1-16.7a1.17 1.17 0 1 1 1.5 1.8l-20.1 16.7a1.19 1.19 0 0 1-.75.29z"/></g><g fill="#ffe900"><circle cx="107.9" cy="11.36" r="3.06"/><circle cx="34.61" cy="27.33" r="3.06"/><circle cx="17.7" cy="27.33" r="3.06"/></g></svg>