<svg xmlns="http://www.w3.org/2000/svg" height="682.667" viewBox="-3 0 512 512" width="682.667"><path d="M317.5 341.332c1.1-6.977 1.62-14.145 1.62-21.332 0-7.148-.53-14.23-1.598-21.164l35.262-27.668c8.277-6.508 10.563-18.28 5.313-27.457l-22.762-39.422c-5.293-9.152-16.66-13.078-26.453-9.133l-41.56 16.746c-11.348-9.148-23.66-16.277-36.7-21.227l-6.316-44.37C222.824 135.87 213.758 128 203.195 128h-45.48c-10.562 0-19.63 7.87-21.12 18.324l-6.316 44.395c-13.055 5.016-25.492 12.227-36.52 21.184l-41.75-16.746c-9.793-3.926-21.14 0-26.434 9.133L2.832 243.7c-5.3 9.176-2.984 20.992 5.355 27.477l35.223 27.48c-1.1 6.977-1.62 14.145-1.62 21.332 0 7.148.53 14.23 1.598 21.164l-35.263 27.67c-8.277 6.508-10.56 18.28-5.312 27.457l22.742 39.422c5.3 9.133 16.66 13.06 26.453 9.133l41.56-16.746c11.348 9.148 23.656 16.277 36.7 21.227l6.316 44.37C138.086 504.13 147.152 512 157.715 512h45.48c10.563 0 19.63-7.87 21.12-18.324l6.316-44.395c13.055-5.016 25.492-12.227 36.52-21.184l41.75 16.746c9.836 3.945 21.164.02 26.434-9.133l22.742-39.422c5.3-9.176 2.984-20.992-5.355-27.477zm-137.043 53.336c-41.176 0-74.668-33.496-74.668-74.668s33.492-74.668 74.668-74.668S255.12 278.828 255.12 320s-33.492 74.668-74.664 74.668zm302.996-277.996c.406-3.305 1.004-6.57 1.004-10.004s-.598-6.7-1.004-10.008l19.223-14.547c4.285-3.242 5.48-9.176 2.793-13.848L488.2 38.398c-2.687-4.648-8.43-6.6-13.38-4.5l-22.12 9.324c-5.398-4.117-11.137-7.746-17.473-10.4l-2.94-23.488C431.613 4.012 427.1 0 421.715 0H387.22a10.67 10.67 0 0 0-10.582 9.344l-2.945 23.488c-6.336 2.645-12.094 6.293-17.473 10.4l-22.12-9.324a10.66 10.66 0 0 0-13.398 4.5l-17.234 29.867c-2.7 4.652-1.496 10.582 2.793 13.848l19.22 14.547c-.43 3.3-1.023 6.57-1.023 10.008s.594 6.7 1 10.004l-19.22 14.55c-4.3 3.242-5.484 9.172-2.797 13.844l17.258 29.867c2.688 4.652 8.43 6.6 13.38 4.5l22.12-9.344c5.398 4.117 11.137 7.746 17.473 10.4l2.94 23.488c.684 5.355 5.207 9.363 10.582 9.363h34.496c5.38 0 9.922-4.008 10.582-9.344l2.945-23.488c6.336-2.645 12.094-6.293 17.473-10.387l22.12 9.32a10.66 10.66 0 0 0 13.398-4.5l17.234-29.867c2.7-4.652 1.496-10.582-2.793-13.844zm-78.996 32.66c-23.574 0-42.668-19.094-42.668-42.664S380.883 64 404.457 64s42.664 19.094 42.664 42.668-19.094 42.664-42.664 42.664zm0 0"/></svg>