<svg xmlns="http://www.w3.org/2000/svg" width="512" height="512"><text><tspan fill="#ff0" font-family="Verdana-Bold" font-size="20" x="168.783" y="543.809">simpleicon.com</tspan><tspan x="9.193" y="567.809" fill="#ff0" font-family="Verdana" font-size="20">Collection Of Flat Icon, Symbols And Glyph Icons</tspan></text><path fill="#020201" d="M454.426 392.582c-5.44-16.32-15.298-32.782-29.84-42.362-27.98-18.572-60.578-28.48-92.1-39.085-7.604-2.664-15.33-5.568-22.28-9.7-6.204-3.686-8.533-11.246-9.974-17.886-.636-3.512-1.026-7.116-1.228-10.66 22.857-31.267 38.02-82.295 38.02-124.136 0-65.298-36.896-83.495-82.402-83.495-45.515 0-82.403 18.17-82.403 83.468 0 43.338 16.255 96.5 40.49 127.383-.22 2.438-.51 4.876-.95 7.303-1.444 6.64-3.77 14.058-9.97 17.743-6.957 4.133-14.682 6.756-22.287 9.42-31.52 10.605-64.12 19.957-92.09 38.53-14.55 9.58-24.403 27.16-29.838 43.48-5.597 16.938-7.886 37.917-7.54 54.917h411.932c.348-17-1.946-37.978-7.54-54.917z"/></svg>