<svg xmlns="http://www.w3.org/2000/svg" width="2800" height="2800"><path d="M0 1400v1400h2800V0H0" fill="#fff"/><g fill-rule="evenodd"><path d="M681.26 2329.5c0 68.64-53.56 125.32-120.64 125.32-43.68-.52-82.16-26.52-101.92-65h-.52v171.6h-18.2v-352.56h15.6l2.08 59.8h1.56c19.76-37.96 57.72-63.96 101.4-64.48 67.08 0 120.64 57.2 120.64 125.32zm-223.08 0c0 58.76 46.28 106.6 102.44 106.6s101.92-47.84 101.92-106.6c0-58.24-45.76-107.12-101.92-107.12s-102.44 48.88-102.44 107.12zm487.24 0c0 69.16-54.08 125.32-120.64 125.32s-120.64-56.16-120.64-125.32 54.08-125.32 120.64-125.32 120.64 56.16 120.64 125.32zm-222.56 0c0 59.28 46.28 106.6 101.92 106.6s101.92-47.32 101.92-106.6-46.28-107.12-101.92-107.12-101.92 47.84-101.92 107.12zm245.96 0c0-68.64 53.56-125.32 120.64-125.32 43.68.52 82.16 26.52 101.92 65v-172.12h18.72v353.08h-15.6l-2.08-59.8h-1.56c-19.76 37.96-57.72 63.96-101.4 64.48-67.08 0-120.64-57.2-120.64-125.32zm222.56 0c0-58.76-45.76-107.12-101.92-107.12s-101.92 48.36-101.92 107.12c0 58.24 45.76 106.6 101.92 106.6s101.92-48.36 101.92-106.6z"/><path d="M1265.74 2273.87c0 89.44 68.12 162.24 157.56 162.24 39 0 76.96-13.52 104-36.4l11.96 13.52c-30.68 25.48-72.8 41.6-115.96 41.6-100.36 0-176.28-81.12-176.28-180.96s75.92-181.48 176.28-181.48c43.16 0 85.28 16.12 115.96 41.6l-11.96 14.04c-27.04-22.88-65-36.92-104-36.92-89.44 0-157.56 73.32-157.56 162.76zm333.84-176.8v333.32c0 .52.52 1.04 1.04 1.04v18.72c-10.92 0-19.24-8.84-19.24-19.76v-333.32h18.2zm278.2 232.44c0 69.16-54.08 125.32-120.64 125.32s-120.64-56.16-120.64-125.32 54.08-125.32 120.64-125.32 120.64 56.16 120.64 125.32zm-222.56 0c0 59.28 46.28 106.6 101.92 106.6s101.92-47.32 101.92-106.6-46.28-107.12-101.92-107.12-101.92 47.84-101.92 107.12zm273.52-120.64v162.24c0 42.12 29.12 65 74.36 65 61.36 0 111.8-53.56 111.8-120.64v-106.6h18.2v241.28h-15.6l-2.08-68.64h-1.56c-21.32 43.68-62.92 73.32-110.76 73.32-55.64 0-92.56-31.72-92.56-83.72v-162.24h18.2zm241.28 120.64c0-68.64 53.56-125.32 120.64-125.32 43.68.52 82.16 26.52 101.92 65v-172.12h18.72v353.08h-15.6l-2.08-59.8h-1.56c-19.76 37.96-57.72 63.96-101.4 64.48-67.08 0-120.64-57.2-120.64-125.32zm222.56 0c0-58.76-45.76-107.12-101.92-107.12s-101.92 48.36-101.92 107.12c0 58.24 45.76 106.6 101.92 106.6s101.92-48.36 101.92-106.6z" fill="#21218b"/></g><path d="M1674.36 381.7c-8.26.35-19.95 1.12-25.9 1.68-5.95.63-21.56 2.66-34.65 4.55-13.1 1.96-30.73 4.97-39.2 6.72l-22.05 4.62c-3.64.7-9.17 2.1-12.25 3.08-3.08.9-9.52 2.66-14.35 3.92-4.83 1.2-11 3-13.65 3.92l-16.8 5.8-21.7 7.56c-5.4 1.9-11.06 4.06-12.6 4.9-1.54.77-5.67 2.52-9.1 3.85-3.5 1.33-10.7 4.48-16.1 6.93s-14.84 7.07-21 10.3c-6.16 3.3-13.23 6.93-15.75 8.12-2.52 1.26-7.7 4.06-11.55 6.3l-12.95 7.5-10.15 6.02c-2.3 1.33-10 6.37-17.15 11.13s-15.96 10.85-19.6 13.58l-11.55 8.26c-2.73 1.82-9.03 6.65-14 10.64l-16.1 12.95c-3.85 3.15-13.44 11.7-21.35 18.97s-20.65 19.88-28.35 27.93l-18.62 19.88c-2.52 2.87-7.2 8.54-10.43 12.6l-9.45 11.55c-1.96 2.3-6.8 8.6-10.85 14l-10.5 14.35-9.45 13.5c-4.55 6.44-6.58 8.82-7.35 8.54-.56-.2-6.44-.77-12.95-1.26-6.58-.42-21.84-.77-33.95-.84-12.1 0-26.95.42-32.9.9l-17.85 1.6-16.8 2.03-17.5 2.73-17.15 3.22c-5.18.9-16.73 3.64-25.55 6.02-8.9 2.3-16.6 4.48-17.15 4.76-.56.35-7.84 2.87-16.1 5.67-8.26 2.73-20.72 7.35-27.65 10.15-6.93 2.87-18.76 8.12-26.25 11.76-7.5 3.57-17.57 8.75-22.4 11.34l-12.95 7.14c-2.3 1.33-8.12 4.76-12.95 7.77-4.83 2.94-11.76 7.42-15.4 9.87l-12.6 8.75c-3.3 2.3-9.45 6.93-13.65 10.15-4.27 3.3-11.62 9.3-16.45 13.3-4.83 4.06-13.5 11.62-19.25 16.87-5.8 5.32-14.56 14-19.6 19.32l-12.25 13.23-5.25 5.95c-1.12 1.33-5.25 6.37-9.1 11.2l-10.15 12.88c-1.75 2.24-4.76 6.37-6.8 9.1l-8.82 12.67-10.43 15.75c-2.87 4.4-7.28 11.7-9.8 16.1s-7.2 13.23-10.43 19.6l-7.98 16.3-2.1 4.76c-9.24-.07-16.17.28-21.35.63-5.18.42-18.13 1.9-28.7 3.22s-26.53 3.85-35.35 5.6c-8.9 1.75-21.28 4.62-27.65 6.3l-19.25 5.18c-4.27 1.2-13.37 4.06-20.3 6.44-6.93 2.3-17.36 6.1-23.1 8.4-5.8 2.3-14.28 5.95-18.9 8.05l-17.85 8.6c-5.18 2.6-15.6 8.12-23.1 12.25s-18.2 10.43-23.8 14.07l-16.6 10.92c-3.5 2.45-11.2 8.05-17.15 12.53a750.48 750.48 0 0 0-20.51 16.31c-5.4 4.48-15.82 13.86-23.1 20.93-7.35 7-16.8 16.52-21.07 21.14s-10.3 11.4-13.3 15.05l-9.8 11.9c-2.38 2.87-6.8 8.54-9.8 12.6-3.08 4.06-9.17 12.88-13.65 19.6l-11.97 18.55c-2.17 3.43-6.3 10.36-9.17 15.4a399.42 399.42 0 0 0-10.08 18.9c-2.73 5.4-6.8 14.07-9.1 19.25-2.38 5.18-5.67 12.88-7.42 17.15-1.75 4.2-4.62 11.62-6.3 16.45-1.75 4.83-4.97 14.28-7.14 21s-5.53 18.7-7.5 26.6l-4.76 20.65c-.7 3.43-2.24 12.25-3.43 19.6-1.2 7.28-2.45 16.1-2.87 19.6-.42 3.43-1.26 11.48-1.75 17.85-.7 7.42-1.05 21.42-1.05 39.2 0 15.2.35 31.08.7 35.35l2.17 19.6c.77 6.5 2.38 17.43 3.5 24.15 1.2 6.72 3.15 16.8 4.48 22.4l4.9 20.3c1.4 5.6 3.78 14.2 5.32 19.25 1.6 4.97 5.8 16.94 9.38 26.6 3.64 9.6 8.33 21.42 10.5 26.25s7.56 15.82 11.97 24.5c4.48 8.68 10.64 20.02 13.72 25.2s8.68 14 12.4 19.6a847.67 847.67 0 0 0 11.97 17.5c2.87 4.06 6.8 9.38 8.75 11.9 1.9 2.52 7.2 9.1 11.83 14.7s13.02 15.2 18.62 21.35 11.13 11.9 12.25 12.74c1.2.84 5.25 4.7 9.1 8.6s10.57 10.15 14.98 13.86c4.34 3.7 11.48 9.6 15.82 13.1 4.34 3.43 12.4 9.6 17.92 13.65s14.84 10.5 20.65 14.35c5.88 3.85 15.47 9.8 21.42 13.3 5.88 3.43 15.12 8.6 20.5 11.48s15.47 7.84 22.4 11.06c6.93 3.3 15.26 7 18.55 8.4l9.45 3.7 11.55 4.4c4.4 1.68 14.35 5.04 22.05 7.42 7.7 2.45 19.53 5.8 26.25 7.5 6.72 1.75 15.05 3.7 18.55 4.48 3.43.77 11.48 2.3 17.85 3.43l21.7 3.57c5.6.84 17.08 1.96 25.55 2.52s22.96 1.2 32.2 1.47c9.24.2 81.34 0 160.3-.42l1337.7-7.35c13.16-.14 26.88-.77 33.25-1.4l22.4-2.6 19.25-2.8 17.5-3.08c5.4-1.05 17.64-3.85 27.3-6.3 9.6-2.45 21.77-5.95 26.95-7.77l16.1-5.53 13.3-4.83c3.64-1.4 10.57-4.2 15.4-6.23 4.76-2.03 16.73-7.63 26.6-12.53 9.8-4.9 22.4-11.62 28-14.9l16.8-10.36 14.7-9.52c4.4-2.94 12.46-8.6 17.85-12.67l15.4-11.83c3.08-2.45 7.14-5.95 9.1-7.77 1.9-1.9 5.67-5.18 8.4-7.42 2.66-2.3 11.13-10.3 18.76-17.78s17.3-17.43 21.42-22.05 9.8-11.4 12.67-15.05c2.8-3.64 6.58-8.4 8.4-10.5s6.23-7.98 9.8-12.95c3.64-5.04 9.3-13.37 12.74-18.55 3.36-5.18 8.96-14.2 12.4-19.95l8.75-15.05c1.4-2.52 4.76-9.1 7.5-14.7l8.47-17.85c1.9-4.27 6.37-15.12 10-24.15 3.57-9.03 8.4-22.6 10.7-30.1s5.18-17.3 6.3-21.7c1.2-4.4 3.43-14.07 4.97-21.35 1.54-7.35 3.3-16.6 3.92-20.65l2.17-14.35c.56-3.85 1.68-12.8 2.45-19.95.77-7.28 1.6-20.5 1.82-30.1.2-9.66.07-24.78-.42-34.65-.5-9.66-1.6-24.43-2.52-32.9-.98-8.47-2.66-21.07-3.85-28s-3-16.38-4.13-21l-4.97-20.3c-1.6-6.58-4.62-16.94-6.65-23.1s-6.02-17.22-8.75-24.5c-2.73-7.35-5.88-15.33-7-17.85s-5.8-12.46-10.5-22.05c-4.7-9.66-12.1-23.52-16.52-30.8-4.4-7.35-10-16.3-12.4-19.95-2.38-3.7-7.7-11.4-11.76-17.15-4.13-5.8-11.97-16.17-17.5-23.1s-13.65-16.52-18.06-21.35-13.23-13.86-19.6-20.16-14.63-14.07-18.27-17.22c-3.64-3.22-9.66-8.26-13.37-11.34-3.64-3-9.03-7.35-11.9-9.52l-9.73-7.42c-2.52-1.9-8.68-6.23-13.65-9.66-5.04-3.43-12.4-8.33-16.45-10.85l-12.6-7.84c-2.87-1.68-10.15-5.8-16.1-9.03-5.95-3.3-14.63-7.84-19.32-10.08-4.62-2.3-11.62-5.53-15.47-7.28l-7.07-3.15c-.5-20.65-.98-30.38-1.4-35l-1.6-15.75c-.42-4.06-1.54-12.74-2.45-19.25l-3-20.65c-.77-4.83-1.9-11-2.45-13.65-.56-2.73-2.66-11.7-4.62-19.95l-4.97-21.35c-.84-3.5-3.64-13.1-6.37-21.35l-8.75-26.6c-2.17-6.37-4.97-14.07-6.3-17.15s-3.36-7.98-4.4-10.85l-5.1-12.6c-1.68-4.06-8.05-17.15-14.07-29.05-6.02-11.97-13.8-26.6-17.3-32.55l-8.9-15.05c-1.4-2.3-7.2-11.27-12.95-19.95-5.8-8.68-12.32-18.13-14.56-21l-11.48-15.05-11.4-14.7c-2.17-2.73-7.9-9.52-12.67-15.05-4.76-5.6-18.34-19.74-30.1-31.5l-27.1-26.25c-3.08-2.73-8.4-7.28-11.83-10.15-3.36-2.87-8.6-7.14-11.62-9.45l-11.27-8.82c-3.22-2.6-9.45-7.28-13.86-10.5s-15.2-10.57-23.94-16.38l-19.25-12.46-10-5.88-15.75-8.96c-5.04-2.8-11.97-6.5-15.4-8.26-3.5-1.68-7.9-4.06-9.8-5.18a71.43 71.43 0 0 0-7.7-3.71 131.16 131.16 0 0 1-8.75-3.92c-2.52-1.2-7.42-3.43-10.85-4.83l-16.45-6.8c-5.6-2.38-14.42-5.74-19.6-7.63l-16.45-5.8c-3.85-1.33-12.04-4-18.2-5.95s-17.22-5.1-24.5-7.07c-7.35-1.96-21.35-5.25-31.15-7.28l-23.1-4.9c-2.87-.56-9.66-1.68-15.05-2.45-5.4-.84-14.07-1.96-19.25-2.52l-18.2-2.1c-4.83-.56-15.2-1.33-23.1-1.68-7.9-.42-23.8-.9-35.35-1.05s-27.8-.07-36.05.28z" fill="#fdfdfd"/><path d="M1679.26 444.7c-8.68.35-19.4.98-23.8 1.4s-18 2.24-30.1 3.92-30.6 4.83-40.95 6.93c-10.43 2.1-21.28 4.55-24.15 5.32-2.87.84-9.8 2.73-15.4 4.2s-13.65 3.92-17.85 5.46l-16.1 5.67-16.8 5.88a422.32 422.32 0 0 0-18.2 7.21l-16.1 7.07c-3.5 1.54-9.8 4.62-14 6.8l-16.1 8.4c-4.62 2.38-11.4 6.1-15.05 8.2l-10.85 6.37c-2.3 1.33-6.72 4-9.8 5.88-3 1.82-8.54 5.4-12.25 7.84-3.64 2.45-9.52 6.5-12.95 9.03l-11.9 8.68-10.08 7.42c-2.52 1.82-8.47 6.58-13.3 10.5l-11.97 9.8c-1.68 1.47-7 6.23-11.76 10.64s-12.46 11.83-17.15 16.52l-15.9 16.1c-4 4.2-9.03 9.66-11.2 12.18s-7.2 8.6-11.27 13.5l-9.87 12.25c-1.47 1.82-5.4 7.07-8.82 11.7L1218.8 703c-.77.98-3 4.4-5.04 7.7l-8.75 14.35-6.8 11.55c-.98 1.75-2.66 3.85-3.78 4.76-1.6 1.26-2.87 1.54-5.88 1.54-2.1-.07-5.46-.35-7.35-.77-1.96-.35-10.15-1.54-18.2-2.66-8.12-1.12-21.77-2.38-30.45-2.87s-21.14-.7-27.65-.56c-6.58.2-16.17.77-21.35 1.2l-16.8 1.54a483.06 483.06 0 0 0-16.1 2.03c-4.83.7-14.14 2.24-20.65 3.43-6.58 1.12-16.3 3.22-21.7 4.62l-13.3 3.5c-1.96.5-11.2 3.57-20.65 6.86-9.45 3.22-22.33 7.98-28.7 10.57s-18.34 8.12-26.6 12.25-19.18 9.87-24.15 12.8l-12.95 7.7-10.85 6.93c-3.85 2.52-9.52 6.44-12.67 8.75l-11.2 8.26c-3 2.3-9.66 7.63-14.63 11.9-5.04 4.2-12.25 10.57-16.1 14a407.23 407.23 0 0 0-11.55 10.99c-2.52 2.52-7.77 8.05-11.62 12.25-3.92 4.2-8.82 9.66-10.85 12.1-2.1 2.45-5.8 7.07-8.33 10.15-2.52 3.15-6.93 8.82-9.8 12.67l-7.7 10.5c-1.47 1.9-4.76 6.8-7.35 10.85l-7.35 11.2c-1.4 2.1-3.78 6.02-5.25 8.75-1.47 2.66-3.22 5.67-3.85 6.65s-3.08 5.53-5.46 10.15c-2.3 4.62-6.16 12.46-8.4 17.5-2.3 4.97-6.44 14.77-9.24 21.7-2.73 6.93-5.67 14-6.5 15.68-.84 1.75-2.52 3.7-3.64 4.4-1.2.7-3.43 1.26-5.25 1.26-1.75 0-6.93-.5-11.55-1.05s-13.3-1.05-19.25-1.05-15.26.35-20.65.7c-5.4.42-12.04 1.05-14.7 1.47l-16.3 2.1c-6.23.7-17.57 2.6-25.2 4.06-7.56 1.54-17.92 3.85-22.9 5.18l-17.85 4.9c-4.83 1.33-14.42 4.4-21.35 6.72-6.93 2.38-14.35 5.04-16.45 5.95s-6.37 2.66-9.45 3.92c-3.08 1.33-10.78 4.83-17.15 7.9s-17.08 8.54-23.8 12.25c-6.72 3.64-14.28 7.9-16.8 9.45s-9.45 6.02-15.4 10-15.26 10.57-20.65 14.7c-5.4 4.06-14.35 11.27-19.95 15.96-5.6 4.62-15.33 13.65-21.77 20.02l-16.8 17.15c-2.87 3.08-8.75 9.87-13.02 15.05-4.34 5.18-10.08 12.4-12.74 15.9-2.73 3.57-8.05 11.13-11.83 16.8-3.85 5.74-8.82 13.37-11.06 17-2.3 3.64-5.46 8.82-6.93 11.55l-4.4 7.7c-.84 1.54-4.06 7.84-7.14 14-3 6.16-7.42 15.75-9.8 21.35s-5.88 14.42-7.84 19.6-4.9 13.72-6.65 18.9c-1.68 5.18-4.9 17-7.2 26.25s-4.83 20.72-5.6 25.55c-.84 4.83-2.1 12.8-2.8 17.85a471.13 471.13 0 0 0-2.38 21.14c-.77 8.05-1.12 19.95-1.12 35.35 0 12.8.28 26.74.7 31l1.82 17.15c.56 5.18 1.54 12.1 2.1 15.4l1.75 10.15c.35 2.3 1.6 8.47 2.8 13.65l4.83 19.95c1.47 5.74 3.57 13.16 4.55 16.45 1.05 3.3 4.4 12.74 7.5 21l8.47 21.7c1.54 3.64 6.23 13.23 10.3 21.35 4.06 8.05 10.08 19.1 13.3 24.5s8.54 13.86 11.9 18.9l9.87 14.35 7.28 9.8c1.9 2.52 7.2 9.1 11.83 14.7s15.96 17.7 25.2 26.95c9.3 9.24 19.04 18.62 21.77 20.8l9.8 8.2c2.66 2.3 6.16 5.1 7.7 6.16 1.6 1.05 6.8 4.83 11.55 8.4 4.83 3.57 11.9 8.6 15.75 11.13 3.85 2.6 12.04 7.7 18.2 11.34s14.5 8.4 18.55 10.5 7.63 4.06 8.05 4.34c.35.28 5.6 2.8 11.55 5.6s12.8 5.8 15.2 6.72c2.45.9 4.97 1.96 5.6 2.38.7.35 6.3 2.6 12.46 4.83 6.16 2.3 16.73 5.88 23.45 7.98s17.92 5.25 24.85 7 18.55 4.27 25.9 5.6l18.2 3.22c2.66.42 7.42 1.05 10.5 1.4 3.08.42 15.05 1.26 26.6 1.9 19.67 1.12 34.58 1.12 234.15 0l1124.2-6.02 157.85-1.05c8.47-.14 21.7-.98 29.4-1.75l21.35-2.38 11.55-1.75c2.3-.35 8.47-1.47 13.65-2.45s13.86-2.8 19.25-4.13l16.45-4.2a203.16 203.16 0 0 0 13.65-4.34l14.35-4.97c4.06-1.33 10-3.57 13.3-4.83l16.1-6.65c5.6-2.38 15.33-6.93 21.7-10.15s15.6-8.33 20.65-11.27c4.97-2.94 14.77-9.03 21.7-13.5s17.08-11.48 22.54-15.68c5.53-4.13 12.04-9.17 14.5-11.2 2.45-1.96 7.84-6.65 12.04-10.3s13.3-12.32 20.23-19.25c7-6.93 15.33-15.6 18.55-19.32 3.3-3.7 7.7-9.03 9.8-11.83s5.4-6.86 7.2-9.03c1.9-2.17 6.3-8.05 9.87-13.02 3.5-5.04 8.82-12.88 11.76-17.5s7.28-11.7 9.66-15.75c2.45-4.06 7.35-13.02 10.92-19.95s8.68-17.78 11.34-24.15l8.54-21c2.03-5.18 5.25-14.35 7.14-20.3s4.4-14.5 5.53-18.9 3-12.32 4.13-17.5c1.2-5.18 2.87-14.2 3.85-19.95l2.45-15.75c.42-2.87 1.2-10 1.75-15.75.56-5.8 1.26-16.3 1.47-23.45.28-7.28.14-20.16-.35-29.4l-1.54-23.8c-.35-4.06-.98-10-1.4-13.3s-1.54-10.85-2.45-16.8c-.98-5.95-2.3-13.23-3.08-16.1s-2.66-10.64-4.2-17.15c-1.6-6.58-3.7-14.56-4.7-17.85s-4.76-14-8.4-23.8a409.4 409.4 0 0 0-15.12-35.35c-4.62-9.66-9.1-18.62-9.94-19.95s-2.73-4.48-4.2-7l-4.2-7-6.65-10.5a452.4 452.4 0 0 0-11.06-16.45c-3.3-4.62-8.82-12.04-12.32-16.45l-9.87-12.25c-1.9-2.3-7.14-8.12-11.55-12.95s-12.25-12.88-17.5-17.92c-5.18-5.04-11.76-11.2-14.63-13.65l-9.8-8.33c-2.52-2.1-10.5-8.26-17.7-13.65s-18.55-13.3-25.2-17.57-16.52-10.22-21.9-13.23-14.07-7.63-19.25-10.22-13.1-6.37-17.5-8.33a308.8 308.8 0 0 0-14.35-6.09l-16.45-6.23c-6.58-2.45-10.85-4.48-12.1-5.74-1.05-1.05-2.24-2.87-2.73-4-.63-1.6-.5-4.2.42-11.55.98-7.56 1.12-13.37.9-28.7-.14-10.57-.63-23.38-1.12-28.35l-1.54-16.1-1.75-14.35-2.03-13.3-1.75-11.2c-.42-2.87-1.9-9.8-3.22-15.4-1.4-5.6-3.7-15.68-5.25-22.4s-4.13-16.38-5.88-21.35l-7.07-21.7c-2.17-6.93-5.4-15.9-7.14-19.95l-5.04-12.6-5.1-12.6c-1.68-4.06-3.92-8.96-4.97-10.85-.98-1.96-2.1-4-2.45-4.55-.42-.56-3.22-6.44-6.37-12.95-3.15-6.58-6.8-13.5-8.05-15.4-1.26-1.96-4.76-7.9-7.77-13.3s-6.8-11.76-8.33-14.07l-6.23-9.45-7.28-11.13c-2.1-3.3-5.67-8.33-7.98-11.2l-10.36-13.65-10-12.95c-2.03-2.52-7.56-9.17-12.32-14.7-4.76-5.6-17.36-18.76-28-29.33-10.64-10.5-23.1-22.33-27.72-26.18l-9.17-7.77c-.42-.42-2.73-2.38-5.1-4.27l-9.1-7.28c-2.52-2.03-9.66-7.42-15.82-11.9-6.16-4.4-16.8-11.76-23.6-16.17l-18.2-11.62c-3.22-2.03-7.2-4.34-8.96-5.18s-3.64-1.96-4.2-2.45-3.57-2.24-6.65-3.85c-3.08-1.68-8.9-4.76-12.95-6.8l-11.2-5.8c-2.1-1.12-7.63-3.78-12.25-5.88s-11.9-5.18-16.1-6.93l-14-5.8c-3.5-1.4-8.54-3.36-11.2-4.27-2.73-.9-9.17-3.22-14.35-5.04-5.18-1.9-14-4.9-19.6-6.65s-15.54-4.62-22.05-6.37l-19.6-4.9c-4.27-.98-13.72-2.94-21-4.48l-17.85-3.5c-2.52-.42-10.08-1.4-16.8-2.17l-21-2.52c-4.83-.56-15.54-1.33-23.8-1.68l-30.1-.9c-8.26-.2-22.12-.07-30.8.2z" fill="#21218b"/><path fill-rule="evenodd" d="M1487.46 726.94c9.03-.07 21.5.2 27.65.56 6.16.42 16.73 1.33 23.45 2.1 6.72.7 17.3 2.17 23.45 3.15s16.24 2.87 22.4 4.2 16.1 3.7 22.05 5.25c5.95 1.6 11.48 2.94 12.25 3.08s5.32 1.4 10.15 2.87c4.83 1.4 13.65 4.4 19.6 6.65l21.7 8.33 15.05 6.23c2.3.98 12.67 6.1 23.1 11.34 10.36 5.25 24.85 13.3 32.2 17.85l19.25 12.18c3.3 2.17 8.12 5.53 10.85 7.42l11.9 8.6c3.85 2.87 9.8 7.63 13.16 10.57l9.45 8.05c1.82 1.47 7.98 7.07 13.8 12.4 5.74 5.25 15.05 14.5 20.65 20.44 5.6 5.88 12.6 13.58 15.6 17l7.5 8.33c1.05 1.12 5.8 7.14 10.5 13.3 4.62 6.16 12.04 16.52 16.38 23.1L1902 959.2l9.17 15.4c2.52 4.4 4.62 8.26 4.7 8.54 0 .35 1.47 3.3 3.36 6.65 1.82 3.43 4.48 8.68 5.88 11.76l4.7 10.3c1.2 2.66 2.17 4.9 2.17 5.1s.98 2.45 2.17 5.04c1.2 2.66 3 6.93 4.13 9.66l4.2 10.85 3.64 9.45c.7 1.9 3 9.3 5.1 16.45s5.88 21 8.33 30.8c2.73 10.7 5.67 24.7 7.35 35l3.85 25.2c.56 4.4 1.4 12.32 1.82 17.5.5 5.18.77 22.33.77 38.15-.07 15.75-.42 32.48-.77 37.1l-1.4 14-1.47 10.5-3.5 20.65c-1.54 8.68-4.34 21.7-6.3 29.05l-6.65 24.15c-1.75 5.95-4.55 14.77-6.23 19.6l-5.46 15.05c-1.33 3.43-4.97 12.1-8.05 19.25l-9.1 20.3c-1.96 4.06-5.6 11-8.05 15.4l-7.42 13.65a287.1 287.1 0 0 1-5.88 10.15c-1.54 2.52-5.8 9.03-9.52 14.56l-9.17 13.65c-1.33 2.03-4.97 7-8.05 11-3 4.06-6.93 9.1-8.6 11.2-1.6 2.1-4.62 5.88-6.65 8.33-2.03 2.52-6.8 7.98-10.57 12.25l-12.04 13.02c-2.73 2.87-9.03 9.17-14 14s-12.46 11.76-16.66 15.4l-11.9 9.94-12.32 9.52c-4.4 3.36-10.64 7.9-13.86 10.15-3.15 2.17-5.95 4-6.3 4-.28 0-.42-18.34-.35-81.55l1.68-3.3c1.05-2.1 7.35-9.1 17.5-19.6l21-22.26c2.87-3.3 7.56-8.96 10.5-12.6s8.6-11.2 12.6-16.8 9.24-13.3 11.7-17.15 7-11.27 10.08-16.45 7.9-14 10.7-19.6l6.16-12.6c.56-1.33 3-6.86 5.4-12.25s5.74-13.58 7.5-18.2 4.27-11.55 5.53-15.4c1.33-3.85 3.36-10.5 4.48-14.7l4.48-17.15c1.33-5.18 3.57-14.98 4.9-21.7 1.4-6.72 3.3-18.4 4.2-25.9.98-7.5 2.1-18.2 2.52-23.8s.7-18.7.7-29.05c0-10.43-.28-23.17-.7-28.35s-1.4-14.63-2.17-21-2.17-15.47-3.08-20.3-2.45-12.4-3.5-16.8c-.98-4.4-3.22-13.58-4.97-20.3-1.82-6.72-4.48-16.17-6.02-21-1.6-4.83-4.97-14.14-7.56-20.65l-7.5-17.85c-1.54-3.3-2.8-6.16-2.87-6.5-.07-.28-2.38-4.97-5.18-10.5-2.73-5.46-7.98-15.12-11.55-21.5-3.64-6.37-8.26-14.07-10.22-17.15l-4.48-6.65c-.5-.56-4.2-5.8-8.33-11.55-4.06-5.8-11-14.9-15.33-20.3-4.4-5.4-10.5-12.67-13.72-16.1-3.15-3.5-9.24-9.87-13.5-14.28-4.27-4.34-12.18-11.9-17.57-16.8s-12.32-10.92-15.4-13.44-8.26-6.58-11.55-9.03c-3.22-2.52-7.5-5.67-9.52-7l-8.75-5.95c-2.87-1.9-6.44-4.4-7.98-5.6-1.54-1.12-5.46-3.7-8.75-5.67s-10.08-5.74-15.05-8.47l-17.15-9.17c-4.4-2.3-14.2-6.58-21.7-9.6l-19.95-8.05c-3.5-1.47-12.46-4.55-19.95-6.86s-21.7-5.95-31.5-8.12c-9.8-2.1-21.35-4.34-25.55-4.97-4.27-.56-13.86-1.68-21.35-2.45s-21.84-1.75-31.85-2.17c-13.44-.63-22.68-.63-35.35-.07-9.45.42-23.45 1.6-31.15 2.6s-16.38 2.24-19.25 2.8-11.7 2.52-19.6 4.27-20.02 4.9-26.95 7-16.52 5.4-21.35 7.28l-12.95 4.9c-2.3.77-6.72 2.6-9.8 3.92l-8.05 3.57-12.6 6.16c-5.6 2.8-14.56 7.5-19.95 10.5l-13.5 7.77c-1.96 1.33-3.78 2.38-4 2.38s-1.68 1.05-3.22 2.24c-1.6 1.26-4.4 3.22-6.3 4.4-1.82 1.12-5.67 3.64-8.47 5.6-2.8 1.9-8.4 6.02-12.46 9.03l-11.2 8.75c-2.1 1.68-6.37 5.25-9.45 7.84s-9.24 8.12-13.65 12.32-11.55 11.2-15.82 15.6-11.4 12.32-15.75 17.57l-10.15 12.25c-1.2 1.54-4.62 6.16-7.7 10.43a528.78 528.78 0 0 0-10.08 14.35l-6.65 10.15c-1.26 1.9-3.36 5.4-4.76 7.7l-5.4 9.1c-1.6 2.66-6.16 11.48-10.15 19.6l-8.96 18.55c-.98 2.1-3.64 8.54-5.95 14.35-2.3 5.74-5.18 13.5-6.44 17.15-1.2 3.64-4.27 13.72-6.72 22.4-2.52 8.68-5.67 20.93-7 27.3s-3.36 17.22-4.48 24.15-2.52 17.92-3.22 24.5c-1.05 9.24-1.33 17.7-1.33 38.15 0 16.3.35 29.68.9 35.35.5 4.97 1.68 14.42 2.6 21 .98 6.5 2.8 17.43 4.2 24.15 1.33 6.72 3.85 17.43 5.6 23.8s4.83 16.6 6.8 22.75 4.55 13.86 5.8 17.15 3.43 8.4 4.83 11.34c1.4 3 2.52 5.6 2.52 5.8s2.24 5.32 4.97 11.34c2.73 6.1 6.5 14.07 8.47 17.7s5.1 9.3 7.07 12.6l7.7 12.95c2.3 3.85 6.72 10.78 9.8 15.4s8.82 12.67 12.67 17.85 7.84 10.3 8.82 11.27c.98 1.05 3.15 3.57 4.9 5.6s6.16 7 9.87 11.06l12.53 13.37c3.22 3.3 9.03 8.9 12.88 12.46 3.92 3.57 7.7 7.56 8.4 8.75 1.33 2.17 1.33 2.66.35 17.64-.56 9.03-.98 26.4-.98 68.88l-2.1-1.6c-1.2-.9-4.34-3.15-7-5.1-2.73-1.9-7.14-5.18-9.87-7.28l-10.5-8.33-10.15-8.33c-2.45-2.03-9.45-8.33-15.54-14-6.1-5.6-15.12-14.5-20.02-19.67l-15.47-17.08-10.36-12.25c-2.03-2.52-7.28-9.38-11.62-15.12-4.34-5.8-10.57-14.35-13.8-19.1l-9.87-14.7c-2.24-3.36-4.48-7.07-4.97-8.2-.56-1.2-2.52-4.76-4.48-8.05s-6.5-11.62-10.15-18.55-7.77-15.47-9.24-18.9l-5.74-13.3-6.44-15.4c-1.96-4.62-4.27-10.92-5.25-14l-4.97-15.75-3.64-12.25c-.28-1.2-1.9-7.28-3.57-13.65s-4.4-19.1-6.16-28.35l-4.13-24.15c-.63-4.06-1.26-10.22-1.4-13.65l-1.2-17.15c-.56-6.1-.9-22.2-.9-36.75 0-14.28.35-31.08.84-37.45l1.2-18.2c.2-3.64.7-8.54 1.12-10.85l3.78-19.95c1.68-8.68 4-19.4 5.1-23.8s3.43-12.8 5.04-18.55c1.6-5.8 3.64-12.74 4.55-15.4.9-2.73 2.3-7.28 3.15-10.15s3.3-9.66 5.32-15.05l5.53-13.65 5.95-13.65c2.38-5.4 6.3-13.93 8.75-18.9a424.26 424.26 0 0 1 9.17-17.15l6.58-11.55c1.05-1.96 3.85-6.65 6.3-10.5s6.37-9.87 8.75-13.3l8.75-12.6c2.38-3.5 5.53-7.7 6.86-9.45 1.4-1.75 2.8-3.22 3.08-3.36.28-.07.56-.63.56-1.2s.2-1.05.5-1.05c.35 0 1.96-1.82 3.7-4l9.3-11.34c3.43-4.06 10.36-11.97 15.4-17.5 5.1-5.6 14.28-14.84 20.44-20.58 6.16-5.8 14.2-13.1 17.85-16.24l14-11.55c4.06-3.22 7.42-6.16 7.5-6.44.14-.35.7-.56 1.26-.56s1.05-.2 1.05-.56c0-.28 3.64-3.22 8.2-6.5l12.8-9.03 12.6-8.05a698.42 698.42 0 0 1 15.89-9.73c4.34-2.52 8.2-4.62 8.6-4.62.35 0 .77-.28.84-.63.14-.35 8.26-4.62 18.06-9.45 9.8-4.9 19.25-9.38 21-10s3.3-1.47 3.5-1.75c.2-.35.84-.7 1.4-.84a26.99 26.99 0 0 0 3.15-1.05c1.12-.5 8.54-3.36 16.45-6.37s18.76-6.86 24.15-8.6 12.18-3.64 15.05-4.34l8.75-2.24c1.9-.5 8.82-2.17 15.4-3.7 6.5-1.47 16.45-3.5 22.05-4.48s17.57-2.73 26.6-3.85c9.03-1.2 21-2.45 26.6-2.87l12.95-.9c1.54-.14 10.22-.28 19.25-.35zm0 182c5.6-.07 14.56.2 19.95.56 5.4.42 15.33 1.54 22.05 2.45 8.2 1.12 17.7 3 28.7 5.88 9.03 2.3 21.5 5.88 27.65 8.05 6.16 2.1 16.1 6.02 22.05 8.68s13.86 6.37 17.5 8.2 8.82 4.62 11.55 6.16c2.66 1.54 9.94 6.16 16.1 10.22s15.12 10.57 19.88 14.42l10.92 8.75c1.2.98 5.46 4.76 9.38 8.4 4 3.64 10.92 10.7 15.47 15.75 4.55 4.97 9.52 10.64 11.13 12.6 1.6 1.9 5.67 7.14 9.03 11.62a587.89 587.89 0 0 1 9.87 13.65c2.1 3.08 5.8 8.75 8.26 12.67 2.38 4 7.5 13.44 11.34 21 3.78 7.63 8.68 18.2 10.85 23.45 2.17 5.32 4.55 11.97 5.25 14.7.77 2.8 2.45 8.54 3.78 12.8 1.33 4.2 2.94 10.08 3.57 12.95l2.45 11.55c.77 3.43 2.17 11.48 3.15 17.85.9 6.37 2.1 16.1 2.6 21.7.5 6.3.7 15.9.42 25.2-.2 9.24-.98 19.25-1.9 25.9-.77 5.95-2.45 15.54-3.57 21.35-1.2 5.74-3.57 15.68-5.32 22.05s-4.2 14.7-5.46 18.55-3.78 10.64-5.6 15.05-6.8 15.12-11.13 23.8c-5.4 10.78-10.5 19.74-16.17 28.35-4.55 6.93-10.57 15.6-13.44 19.25-2.8 3.64-5.8 7.5-8.26 10.43l-5.95-5.74c-3.3-3.15-11-9.87-17.15-15.05s-11.7-9.66-12.25-9.94c-.9-.5-.63-1.12 1.26-3.64 1.26-1.68 4.2-5.88 6.44-9.3l5.4-8.05c.7-.98 3.3-5.04 5.74-9.1a491.65 491.65 0 0 0 9.94-17.5c3-5.6 5.53-10.57 5.53-11.06 0-.42 1.2-3.43 2.73-6.65l3.85-8.54c.7-1.54 2.87-7.84 4.97-14 2.03-6.16 4.7-16.03 5.88-22.05 1.2-5.95 2.8-16.66 3.64-23.8.98-9.1 1.4-17.5 1.47-28.35 0-8.47-.35-19.18-.84-23.8l-1.05-9.45c-.14-.56-.42-2.66-.7-4.55-.2-1.96-.9-6.02-1.54-9.1-.56-3.08-1.82-8.75-2.8-12.6-.9-3.85-3.3-11.76-5.25-17.5-1.96-5.8-5.25-14.63-7.28-19.6-2.1-5.04-5.46-12.4-7.42-16.45-2.03-4-6.58-11.9-10.08-17.5l-9.66-15.05c-1.9-2.73-4.55-6.3-5.95-7.98-1.4-1.75-3-3.78-3.57-4.62s-3.08-3.92-5.6-6.72c-2.52-2.87-7.7-8.33-11.55-12.18s-10.36-9.87-14.42-13.3c-4.13-3.5-9.3-7.7-11.55-9.45-2.3-1.75-7.77-5.6-12.18-8.47l-12.25-8.05-5.6-3.5c-.77-.42-5.32-2.8-10.15-5.32s-11-5.46-13.65-6.5l-9.1-3.57c-2.3-.84-7.2-2.52-10.85-3.7l-13.65-4.2c-3.85-1.2-10.92-2.94-15.75-3.85-4.83-.98-14.9-2.38-22.4-3.22-11.9-1.33-16.24-1.47-33.6-1.2-14.84.2-22.68.7-30.45 1.75-5.8.84-13.8 2.1-17.85 2.94-4.06.77-10.22 2.38-13.65 3.5l-12.6 3.85c-3.5 1.05-8.05 2.66-10.15 3.64s-7.35 3.15-11.55 4.9c-4.27 1.68-8.05 3.36-8.4 3.7-.42.35-4.2 2.45-8.4 4.76-4.27 2.24-10.08 5.46-12.95 7.14s-8.26 5.04-11.9 7.56c-3.64 2.45-7.63 5.25-8.75 6.16-1.2.9-5.88 4.83-10.5 8.6s-11.83 10.3-16.03 14.5-10.5 10.92-14 14.98-7.42 8.82-8.68 10.5l-5.6 7.7c-1.9 2.52-5.8 8.4-8.75 13.1l-5.4 8.96c0 .2-1.05 2.03-2.3 4-1.26 2.03-3.36 6.1-4.7 8.96l-5.04 11.2c-1.54 3.3-3.22 7.2-3.7 8.75s-2.38 6.86-4.2 11.9c-1.82 4.97-4.48 14.14-5.95 20.3s-3.22 14.63-3.78 18.9c-.63 4.2-1.47 12.6-1.9 18.55-.5 5.95-.84 17.43-.84 25.55 0 8.05.42 18.97.84 24.15.5 5.18 1.47 12.6 2.24 16.45s2.38 10.78 3.5 15.4c1.2 4.62 3 10.92 4.13 14l4.4 11.9c1.33 3.43 4.62 11.13 7.42 16.94l4.97 11.06c0 .2 1.96 3.92 4.4 8.2 2.45 4.34 7.63 12.8 11.48 18.76 3.92 5.95 8.33 12.4 9.8 14.28l3.36 4.4c.5.7.35 1.2-.7 1.82-.77.42-2.17 1.54-3.15 2.45-.98.98-3.15 2.87-4.9 4.2-1.75 1.4-6.02 5.04-9.45 8.12-3.5 3.08-8.82 8.05-17.5 16.6l-6.44-8.6c-3.57-4.76-9.52-13.37-13.23-19.1l-9.03-14.35c-1.26-2.1-5.1-9.38-8.54-16.1s-7.77-15.75-9.6-19.95c-1.9-4.27-4.62-11.34-6.16-15.75-1.47-4.4-4.27-13.58-6.23-20.3-1.9-6.72-4.4-16.8-5.53-22.4s-2.3-12.53-2.73-15.4-1.12-9.66-1.6-15.05-.9-18.62-.9-29.4c0-11.76.35-22.54.9-26.95.5-4.06 1.54-11.27 2.3-16.1s2.66-13.93 4.2-20.3 4.4-16.45 6.3-22.4l4.9-14.7c.7-2.1 2.38-6.5 3.78-9.8s5.25-11.48 8.6-18.2c3.3-6.72 7.42-14.77 9.17-17.85s5.74-9.38 8.9-14l10.15-14.98c2.45-3.64 6.86-9.3 9.73-12.6s6.37-7.42 7.7-9.17 5.04-5.95 8.33-9.38L1281.3 990c2.66-2.6 7.14-6.58 9.94-8.82 2.73-2.3 7-5.74 9.45-7.7 2.38-1.96 7.2-5.46 10.7-7.77l13.65-9.03c4.06-2.66 9.1-5.8 11.2-6.86 2.1-1.12 4.62-2.6 5.6-3.22s5.53-2.94 10.15-5.04l17.15-7.77c4.83-2.17 12.8-5.4 17.85-7.14 4.97-1.75 14.42-4.62 21-6.3l19.6-4.83c4.2-.98 11.97-2.45 17.15-3.15 5.18-.77 13.37-1.75 18.2-2.17l11.55-.98c1.54-.07 7.35-.2 12.95-.28zm4.55 164c7.77.14 14.9.77 20.44 1.68 5.8.98 12.18 2.73 19.6 5.4 6.1 2.17 12.18 4.48 13.5 5.1l9.1 4.9c3.64 1.96 9.17 5.4 12.32 7.63 3.08 2.17 8.6 6.5 12.18 9.6 3.64 3.08 8.6 7.98 11.2 10.85 2.52 2.87 6.3 7.63 8.47 10.5 2.1 2.87 5.53 7.98 7.5 11.34 2.03 3.43 3.64 6.44 3.64 6.86 0 .35.2.77.56.84.28.14 1.68 2.73 3.08 5.8s3.64 8.75 4.97 12.6 3.08 9.8 3.85 13.3c.84 3.43 1.96 9.6 2.6 13.65.56 4.06 1.05 12.04 1.05 17.85 0 5.74-.35 13.16-.77 16.45-.35 3.3-1.33 9.1-2.17 12.95-.77 3.85-2.52 10.3-3.78 14.35-1.33 4.06-5.04 12.67-8.26 19.25-3.78 7.56-7.9 14.7-11.48 19.6-3 4.2-8.47 10.7-12.1 14.35s-9.6 8.96-13.23 11.83c-3.64 2.8-9.3 6.72-12.6 8.6-3.3 1.96-9.24 5.18-13.3 7.2s-10.64 4.83-14.7 6.23-9.87 3.22-12.95 4-6.86 1.6-8.4 1.75c-1.54.2-5.18.56-8.05.84s-10.43.5-16.8.5-14.28-.2-17.7-.56c-3.36-.28-9.03-1.12-12.6-1.9-3.5-.77-8.33-2.03-10.64-2.73l-7.35-2.52c-1.75-.56-7.56-3.3-12.95-5.88-5.4-2.66-12.32-6.5-15.4-8.54-3.08-1.96-7.84-5.4-10.5-7.56-2.73-2.17-7.77-6.8-11.2-10.22-3.5-3.5-8.4-9.03-10.92-12.25-2.6-3.3-6.65-9.24-9.1-13.3-2.38-4.06-5.6-10-7.07-13.3l-4.06-8.75c-.7-1.54-2.1-5.32-3-8.4-.98-3.08-2.45-8.9-3.22-12.95-.84-4.06-1.82-11.13-2.17-15.75s-.7-12.32-.7-17.15c0-5.4.5-11.97 1.33-17.15.77-4.62 2.52-12.32 3.92-17.15s4.34-12.53 6.58-17.15c2.17-4.62 6.02-11.7 8.47-15.75 2.52-4.06 6.44-9.87 8.82-12.95s6.93-8.26 10.15-11.55 7.9-7.7 10.43-9.87 7.2-5.8 10.5-8.12 8.33-5.46 11.2-6.86c2.87-1.47 6.5-3.5 8.05-4.4 1.54-.98 7.07-3.3 12.25-5.18s11.97-4.06 15.05-4.76 8.6-1.68 12.25-2.03l9.45-1.05c1.54-.14 8.12-.2 14.7-.07zm14.35 347.4l91.35.9c3.85.42 10 1.47 13.65 2.38s8.68 2.52 11.2 3.5 6.58 2.94 9.1 4.27c2.52 1.4 7.07 4.55 10.15 6.93 3.08 2.45 8.47 7.35 11.97 11 3.57 3.57 8.26 8.9 10.43 11.76s5.6 7.9 7.5 11.2c1.96 3.3 4.34 7.5 5.32 9.45.98 1.9 3.15 6.8 4.83 10.85s4.13 11.27 5.46 16.1 3.15 12.53 4.13 17.15c.9 4.62 1.9 10.92 2.17 14l1.05 13.3c.42 4.2.7 12.6.7 18.55s-.35 14.5-.7 18.9c-.42 4.4-.9 11.06-1.12 14.7s-1.47 12.32-2.87 19.25c-1.33 6.93-3.5 16.38-4.83 21a536.18 536.18 0 0 1-4.62 15.05c-1.2 3.64-3.7 10.92-5.6 16.1s-4.83 12.88-6.58 17.15c-1.68 4.2-5.88 12.88-9.24 19.25l-8.12 15.05c-1.05 1.9-3.08 5.4-4.48 7.7s-4.27 6.72-6.37 9.8c-2.17 3.08-5.88 8.26-8.4 11.55-2.45 3.3-5.95 7.7-7.7 9.8s-5.6 6.3-8.47 9.38c-2.87 3.15-9.03 9.17-13.65 13.44-4.62 4.34-10.78 9.66-13.65 11.9s-8.4 6.1-12.25 8.54c-3.85 2.52-11.13 6.5-16.1 8.96-5.04 2.38-13.86 6.02-19.6 8.05-6.1 2.1-14.5 4.4-19.95 5.4-8.96 1.75-10.7 1.82-33.95 1.82-22.9.07-25.06-.07-33.25-1.6-4.83-.9-12.25-2.8-16.45-4.27-4.27-1.4-10.57-3.78-14-5.25-3.5-1.4-9.17-4.06-12.6-5.88-3.5-1.9-8.54-4.76-11.2-6.58-2.73-1.75-7.7-5.18-11.13-7.63s-7.9-5.8-9.87-7.56l-6.02-5.32c-1.33-1.12-2.87-2.73-3.5-3.5-.63-.7-2.52-2.66-4.2-4.2-1.68-1.6-3.78-3.7-4.7-4.76-.84-.98-1.96-2.03-2.45-2.38-.5-.28-2.45-2.38-4.4-4.7s-6.37-7.98-9.8-12.6c-3.5-4.62-7.56-10.3-9.1-12.6-1.6-2.3-4.76-7.35-7.07-11.2l-8.4-14.35c-2.3-4.06-5.67-10.3-7.5-13.86-1.75-3.5-3.64-7.63-4.2-9.1-.5-1.4-2.87-7.5-5.32-13.44-2.38-5.95-5.88-15.4-7.7-21s-4.62-15.2-6.16-21.35-2.94-12.95-3.15-15.05-1.05-7.98-1.82-12.95c-.77-5.04-1.75-13.86-2.24-19.6-.5-6.8-.7-17-.42-28.7.2-10.08.9-21.5 1.47-25.55l2.45-16.45c.77-5.04 2.38-12.25 3.57-16.1 1.26-3.85 3-8.9 4-11.2l4.2-9.8c1.4-3.08 4.4-8.9 6.72-12.95s5.32-8.75 6.72-10.5 2.73-3.22 3-3.36c.28-.07.56-.5.56-.84 0-.42 2.94-3.7 6.44-7.42 3.57-3.7 9.17-8.9 12.46-11.55 3.3-2.6 8.96-6.37 12.6-8.26s9.94-4.62 14-5.95 10-2.8 13.3-3.22 15.9-1.05 28-1.33c12.1-.2 60-.35 106.4-.2z" fill="#fdfdfd"/></svg>