<?xml version="1.0" encoding="UTF-8" standalone="no"?>
<svg
   xmlns:dc="http://purl.org/dc/elements/1.1/"
   xmlns:cc="http://creativecommons.org/ns#"
   xmlns:rdf="http://www.w3.org/1999/02/22-rdf-syntax-ns#"
   xmlns:svg="http://www.w3.org/2000/svg"
   xmlns="http://www.w3.org/2000/svg"
   xmlns:sodipodi="http://sodipodi.sourceforge.net/DTD/sodipodi-0.dtd"
   xmlns:inkscape="http://www.inkscape.org/namespaces/inkscape"
   width="421.25"
   height="472.5"
   version="1.1"
   id="svg28"
   sodipodi:docname="podradio.svg"
   inkscape:version="0.92.4 (5da689c313, 2019-01-14)">
  <metadata
     id="metadata32">
    <rdf:RDF>
      <cc:Work
         rdf:about="">
        <dc:format>image/svg+xml</dc:format>
        <dc:type
           rdf:resource="http://purl.org/dc/dcmitype/StillImage" />
      </cc:Work>
    </rdf:RDF>
  </metadata>
  <sodipodi:namedview
     pagecolor="#ffffff"
     bordercolor="#666666"
     borderopacity="1"
     objecttolerance="10"
     gridtolerance="10"
     guidetolerance="10"
     inkscape:pageopacity="0"
     inkscape:pageshadow="2"
     inkscape:window-width="1372"
     inkscape:window-height="1028"
     id="namedview30"
     showgrid="false"
     inkscape:zoom="0.70635852"
     inkscape:cx="-46.151941"
     inkscape:cy="132.34019"
     inkscape:window-x="473"
     inkscape:window-y="304"
     inkscape:window-maximized="0"
     inkscape:current-layer="svg28" />
  <defs
     id="defs8">
    <clipPath
       id="A">
      <path
         d="M0 378h337V0H0v378z"
         id="path2" />
    </clipPath>
    <clipPath
       id="B">
      <path
         d="M0 378h336.7V.33H0V378z"
         id="path5" />
    </clipPath>
  </defs>
  <g
     clip-path="url(#A)"
     transform="matrix(1.25 0 0 -1.25 0 472.5)"
     id="g26">
    <g
       fill="#fff"
       id="g12">
      <path
         d="M336.9 378h.1v-.13a1.13 1.13 0 0 0-.1.13M0 378h.13a1.13 1.13 0 0 0-.13-.1v.1"
         id="path10" />
    </g>
    <g
       clip-path="url(#B)"
       fill="#fff"
       id="g20">
      <path
         d="M82.3 191.5l.03-.3c-5.1-.46-9.48-3.55-13.9-5.95 1.58 1.7 3.3 3.25 4.78 5.03l3.18.63c.73 3.04 3.74.38 5.9.58m92.35-174.97c-5.15-.12-8.88 3.78-12.08 7.3 3.75-2.88 8-4.93 12.08-7.3"
         id="path14" />
      <path
         d="M167.52 29.75c5.42-2.15 10.53-5.24 15-9-6.05.35-12.08 3.55-15 9M317.55 206.9c2.53-11.22 2.12-22.82.83-34.18l-1.3-.15-.03.28c-1.88-1.95-2.87-4.5-4.1-6.87-2.4 4.45-3.76 9.37-6.15 13.82-2.9 5.23-5.64 10.52-8.1 15.96-5.3 9.98-11.76 19.3-18.93 28.03-5.35 6.6-11.93 12.08-17.65 18.36-10.93 10.34-23 19.53-36.15 26.9-10.76 6.98-23.1 10.74-35.23 14.55-21.3 5.3-44.02 5.36-65.26-.3-12.4-5-25.4-8.75-36.8-15.94-17.1-9.05-32.2-21.55-45.18-35.86-4.48-3.93-7.44-9.18-11.55-13.45L16.3 199.6c-2.88 4.33 2.35 7.36 4.63 10.44 11.28 13.94 23.1 27.5 36.25 39.72 13.4 11.62 28.75 20.82 44.76 28.36 26.36 12.74 57.02 16 85.53 9.47 14.73-3.86 29.5-8.5 42.47-16.7 21.04-11.67 38.98-28.25 54.32-46.65 8.56-10.18 15.3-21.7 21.2-33.6 2.77-5.33 4.98-11 8.72-15.77 2.54 10.03 1.75 20.55.16 30.67-3.03 13.85-8.93 27.07-17.1 38.64-13.36 18.86-31.35 33.93-50.44 46.7-31.13 19.13-66.94 32.17-103.8 32.06-33.82.4-68.6-9.25-95.05-30.87-9.33-7.63-18.06-16.3-24.2-26.76-4.54-7.77-8.54-15.92-11.3-24.5-1.1-4.25-2-8.57-2.66-12.92l-2.58.4c.28 2.18.2 4.42.4 6.6 1.37 11.8 6.42 22.82 12.6 32.85C25.6 277 33.1 284.84 41 292c10.75 9.85 23.67 17.05 37.1 22.6 34.32 13.75 73.06 15.78 108.8 6.58 35.37-9.55 68.75-27.55 94.86-53.4 16.9-16.7 30.85-37.34 35.78-60.88"
         id="path16"
         style="fill:#000000" />
      <path
         d="M153.32 58.4c2.07-8.77 4.15-18.17 1.16-26.98-1.16-3.14-2.27-6.8-5.24-8.68-3.1-1.26-6.63-1.5-9.9-.7 2.32.67 4.74 1.13 6.93 2.2-4.9-.78-9.98-.76-14.74.84 2.07.57 4.85.13 6.04 2.36-2.63.55-5.27.98-7.9 1.5l-.42 2.7c5.06.4 10.68-.5 14.87 3-5.04.05-10.1-.43-15.13.16-1.33.05-2.55.8-3.2 1.96l-15.9 38.32c-3 8.94-7.64 17.2-10.94 26.03-2.98 5.08-3.86 11.02-7 16-3.45 9.37-7.5 18.5-11.13 27.8-2.52 6.67-6.1 12.93-7.9 19.87-2.57 1.76-1.7 5.2-3.27 7.6 1.56 1.72 3.38 3.16 5.03 4.78-2.03-.82-3.88-2-5.73-3.18l-1.5 3.6 1.33 2.82-1.8.33c4.15 5.57 11.15 7.42 17.03 10.5a13.17 13.17 0 0 1-1.67-.07l-.03.3a2.34 2.34 0 0 1 .7.19c6.02 1.98 11.46-2.48 14.73-7.08 5.93-8.43 10.13-17.9 14.83-27.05 7.4-14.33 13.32-29.34 19.95-44.03 8.04-17.92 15.7-36.1 20.8-55.12M336.7 221.23c0-10.7-1.33-21.4-4.22-31.78-1.5-6.2-3.6-12.24-4.84-18.5-.8-2.05 1.8-2.77 2.9-3.86-1.07-9.74-3.68-19.24-5.67-28.82-3.92-16.5-6.7-33.77-15.74-48.44C302 78.25 292.88 68.07 285 57c-7.1-8.8-13.43-18.54-22.72-25.3-6.8-5.76-14.54-10.24-22.82-13.48-7.4-4.14-14.4-9-22.16-12.5-5.7-2.86-11.77-5.5-18.3-5.38a10.96 10.96 0 0 0-.991-.04c-5.06 0-9.46 2.94-14 4.86-1.7-.37-3.38-.7-5.08-1.03 3.06 3.2 6.68 5.93 9.02 9.77 2.17 3.52 5.67 6.15 7.2 10.07.94 2.46 2.46 4.63 4.1 6.67 27.3 34.85 52.5 71.68 71.17 111.94 2.37 4.35 3.55 9.82 8.02 12.6l1.3 3.3c10.13-4.18 12.97-15.76 14.77-25.47 1.32-4.5.56-9.17 1.07-13.76.82 4.04.94 8.43 4.27 11.4-2.14 5.76-1.56 12.04-1.1 18.04.37 2.6.44 5.4 1.9 7.67 3.9 3.88 9.7 4.78 14.98 4.82 1.03 3.7 1.95 7.5 1.48 11.36l1.3.15c.35-1.6 1.74-1.56 3.03-1.2 1.9 4.8 2.57 9.96 4 14.9 3.56 12.9 6.52 26.18 5.64 39.65-2.5 44.15-24.55 87.22-60.1 113.83-15.47 12.05-33.8 19.76-52.42 25.54-35.1 10.07-73.3 10.5-108.08-1.06-18.54-6-36.23-14.95-51.44-27.2-8.1-6.93-15.56-14.58-22.43-22.72-11.78-15.06-20.9-32.23-26.5-50.52-3.87-12.17-4.26-25.18-3.3-37.8a14.36 14.36 0 0 1 .431 2.16l2.58-.4a126.34 126.34 0 0 1-1.44-20.01c-.3-2.88 2.27-4.63 3.4-6.97 1.05-2.85.96-6.05 2.34-8.78 2.8-1.94 7.87-2.6 7.58-7.03.01-10.38-.7-20.87-3.03-31 .27-6 1.05-12 1.16-18.03.4-6.2-.14-12.83 2.9-18.5 2.92-5.6 5.6-11.4 9.42-16.5l1.6 22c-1.75 13.7-1.03 27.77 2.82 41.06 1.45 4.54 2.96 9.37 6.45 12.8 2.88 2.75 6.5 4.5 10.12 6.05 4.32-3.9 6.46-9.48 10.2-13.85l-.16 4.47c9.17-16.03 15.84-33.34 23.54-50.1.95-2 2.22-3.85 3.3-5.8l15.47-35.32c5.16-12.26 9.57-24.84 15.16-36.92 3.7-7.82 5.46-16.33 7.66-24.64-1.84 2.7-3.4 5.6-5.16 8.35.1-4.84 2-9.36 2.7-14.1-3.37-3.2-8.4-3.32-12.78-3.43-6.3-.22-11.9 3.13-17.08 6.3-8.16 4.96-15.6 10.98-22.56 17.45-2.83 2.73-6.38 4.47-9.76 6.4-6.5 3.96-11.52 9.92-15.75 16.16C41 68.3 35.4 79.45 29.13 90.2c-6.88 11.98-14.17 23.87-18.75 36.97-2.74 7.63-3.7 15.72-4.98 23.68-2.1 14.53-4.08 29.1-5.4 43.72v5.9l2.92 2.5c-2.12 15.6-3.27 31.46-1.6 47.16 1.75 13.13 6.14 25.78 11.74 37.74C24.53 312.4 42.34 334.1 65 349.1c26.4 17.6 57.83 27.7 89.54 28.9h22.75c35.23-2.1 70.6-13.2 98.8-34.83 22.13-16.83 38.9-40.12 49.16-65.86 7.18-17.7 11.44-36.93 11.44-56.08m-74.17-48.77c4.6-4.1 8.72-9.88 8.08-16.35-.7-5.75-3.12-11.1-5.33-16.4-5.37-11.93-11.68-23.4-18.28-34.7-3.42-5.65-6.6-11.5-10.86-16.58-2.97-6.18-7.77-11.2-11.44-16.96-5-6.4-9.32-13.42-15.07-19.18-3.15-2.96-6.83 1.2-10.36 1.03 1.6-2.7 4.48-4.1 6.5-6.42-.05-3.5-5-1.46-7.24-2.24 1.07-1.15 2.22-2.24 3.36-3.33-1.45-1.2-2.88-2.43-4.27-3.7-3.43 1.2-6.33 3.47-9.7 4.8l-1.42-.37c3.07-2.47 7.14-3.62 9.5-6.93-.88-1.74-2.44-3.47-4.57-2.53-6.33 1.83-11.42 6.74-14.84 12.2-1.5 2.2.68 4.18 1.73 5.96 2.4 3.36 2.8 7.6 4.76 11.17 8.72 17.5 20.26 33.42 29.32 50.75 9.97 17.2 18.62 35.15 28.63 52.34 2.75 4.48 5.44 10.08 11.05 11.36 3.95 1.2 7.62-1.47 10.45-3.9M187.28 25.25c-6.4-1.56-11.63 3.82-15.03 8.53 2.62 1.13 1.6 3.35.77 5.37 5.72-3.9 12.64-6.2 17.6-11.1-2.24.03-4.45.36-6.63.83 1.16-1.15 2.32-2.3 3.3-3.63"
         id="path18"
         style="fill:#000000" />
    </g>
    <g
       fill="#fff"
       id="g24">
      <path
         d="M0 .13A1.13 1.13 0 0 0 .1 0H0v.13M336.87 0a1.13 1.13 0 0 0 .13.1V0h-.13"
         id="path22" />
    </g>
  </g>
</svg>
