<svg id="svg" version="1.1" xmlns="http://www.w3.org/2000/svg" xmlns:xlink="http://www.w3.org/1999/xlink" width="400" height="120" viewBox="0, 0, 400,120"><g id="svgg"><path id="path0" d="M205.125 39.347 C 204.853 39.505,204.833 40.083,204.832 47.717 L 204.831 55.917 203.909 54.959 C 202.394 53.385,199.535 51.500,198.664 51.500 C 198.493 51.500,198.307 51.425,198.250 51.333 C 198.193 51.242,197.860 51.167,197.509 51.167 C 197.158 51.167,196.657 51.055,196.394 50.918 C 195.716 50.564,191.618 50.564,190.939 50.918 C 190.677 51.055,190.264 51.167,190.022 51.167 C 189.154 51.167,186.192 52.451,185.528 53.114 C 185.404 53.239,185.103 53.446,184.859 53.574 C 183.436 54.323,180.847 58.054,180.296 60.147 C 180.209 60.479,180.018 61.200,179.872 61.750 C 179.427 63.425,179.408 67.285,179.838 68.917 C 180.031 69.650,180.251 70.497,180.328 70.798 C 180.868 72.918,183.414 76.435,185.125 77.425 C 185.423 77.597,185.667 77.784,185.667 77.839 C 185.667 78.170,189.299 79.667,190.103 79.667 C 190.377 79.667,190.694 79.760,190.808 79.875 C 190.958 80.025,191.793 80.083,193.786 80.083 C 195.854 80.083,196.573 80.031,196.625 79.875 C 196.666 79.751,196.988 79.667,197.421 79.667 C 197.820 79.667,198.193 79.592,198.250 79.500 C 198.307 79.408,198.498 79.333,198.674 79.333 C 199.519 79.333,202.032 77.693,203.708 76.048 L 204.833 74.944 204.833 77.196 C 204.833 80.004,204.887 80.083,206.781 80.083 C 207.822 80.083,208.066 80.030,208.263 79.760 C 208.587 79.318,208.622 39.689,208.300 39.367 C 208.053 39.120,205.542 39.104,205.125 39.347 M250.922 39.552 C 250.495 40.204,250.617 79.355,251.048 79.786 C 251.456 80.194,255.250 80.234,255.504 79.833 C 255.597 79.685,255.663 76.418,255.664 71.811 C 255.666 65.244,255.705 63.964,255.916 63.561 C 256.053 63.298,256.165 62.807,256.166 62.468 C 256.166 62.130,256.242 61.807,256.333 61.750 C 256.425 61.693,256.500 61.468,256.500 61.250 C 256.500 61.032,256.575 60.807,256.667 60.750 C 256.758 60.693,256.833 60.501,256.833 60.323 C 256.833 60.146,256.903 60.000,256.989 60.000 C 257.074 60.000,257.196 59.837,257.259 59.637 C 257.579 58.629,259.439 56.845,260.792 56.248 C 261.181 56.076,261.500 55.875,261.500 55.801 C 261.500 55.727,261.758 55.667,262.073 55.667 C 262.389 55.667,262.693 55.592,262.750 55.500 C 262.894 55.268,266.753 55.288,267.488 55.525 C 269.517 56.180,270.891 57.320,271.731 59.048 C 272.548 60.728,272.536 60.575,272.649 70.617 C 272.728 77.699,272.797 79.697,272.967 79.867 C 273.347 80.247,276.877 80.163,277.318 79.763 L 277.672 79.444 277.605 69.930 C 277.536 60.145,277.483 58.958,277.073 58.058 C 276.941 57.769,276.833 57.465,276.833 57.381 C 276.833 56.311,273.721 52.333,272.883 52.333 C 272.764 52.333,272.667 52.270,272.667 52.192 C 272.667 52.114,272.348 51.919,271.958 51.758 C 271.569 51.597,271.120 51.398,270.961 51.316 C 270.801 51.234,270.480 51.167,270.246 51.167 C 270.013 51.167,269.643 51.049,269.424 50.906 C 268.904 50.565,262.823 50.613,262.708 50.958 C 262.669 51.077,262.362 51.167,261.996 51.167 C 261.642 51.167,261.307 51.242,261.250 51.333 C 261.193 51.425,261.013 51.500,260.849 51.500 C 260.562 51.500,259.504 51.956,259.333 52.154 C 259.287 52.207,258.990 52.395,258.673 52.572 C 258.167 52.854,257.543 53.342,256.935 53.929 C 256.833 54.027,256.525 54.390,256.250 54.735 L 255.750 55.363 255.667 47.306 L 255.583 39.250 253.382 39.204 C 251.226 39.158,251.175 39.165,250.922 39.552 M226.250 41.333 C 226.193 41.425,225.929 41.500,225.663 41.500 C 225.064 41.500,223.333 42.021,223.333 42.201 C 223.333 42.274,223.165 42.339,222.958 42.346 C 222.752 42.352,222.358 42.501,222.083 42.676 C 221.808 42.852,221.420 43.067,221.220 43.156 C 220.555 43.449,218.261 45.898,217.850 46.752 C 217.630 47.209,217.387 47.714,217.309 47.873 C 217.231 48.032,217.167 48.379,217.167 48.644 C 217.167 48.909,217.054 49.395,216.917 49.724 C 216.597 50.490,216.597 51.946,216.918 52.561 C 217.055 52.823,217.167 53.331,217.167 53.688 C 217.167 54.045,217.236 54.468,217.321 54.627 C 217.406 54.786,217.522 55.029,217.578 55.167 C 218.427 57.246,222.029 60.465,223.554 60.505 C 223.662 60.508,224.125 60.695,224.583 60.920 C 225.042 61.146,225.581 61.331,225.782 61.332 C 225.983 61.333,226.193 61.408,226.250 61.500 C 226.307 61.592,226.574 61.667,226.843 61.667 C 227.113 61.667,227.333 61.727,227.333 61.802 C 227.333 61.876,227.802 62.069,228.375 62.229 C 228.948 62.390,229.532 62.582,229.672 62.656 C 229.813 62.730,230.168 62.844,230.462 62.908 C 230.756 62.973,231.039 63.095,231.091 63.179 C 231.144 63.264,231.370 63.333,231.595 63.333 C 231.820 63.333,232.135 63.400,232.294 63.482 C 232.453 63.563,232.846 63.743,233.167 63.882 C 235.498 64.889,236.745 65.860,237.464 67.227 C 238.327 68.871,238.057 71.426,236.869 72.853 C 236.295 73.542,234.512 74.667,233.993 74.667 C 233.827 74.667,233.578 74.779,233.440 74.917 C 233.287 75.070,232.878 75.167,232.379 75.167 C 231.932 75.167,231.487 75.247,231.389 75.344 C 231.096 75.637,225.833 75.298,225.833 74.987 C 225.833 74.904,225.532 74.789,225.163 74.730 C 224.794 74.671,224.452 74.558,224.403 74.478 C 224.354 74.398,224.179 74.333,224.014 74.333 C 223.604 74.333,220.530 72.765,219.932 72.250 C 219.666 72.021,219.404 71.833,219.349 71.832 C 219.295 71.832,218.889 71.490,218.449 71.073 C 217.557 70.228,216.789 70.105,216.433 70.749 C 216.333 70.932,216.129 71.270,215.982 71.499 C 215.092 72.885,214.663 73.848,214.812 74.126 C 215.202 74.852,217.679 76.804,219.083 77.491 C 219.358 77.626,219.621 77.781,219.667 77.837 C 219.953 78.184,224.088 79.667,224.770 79.667 C 225.043 79.667,225.360 79.760,225.475 79.875 C 225.820 80.221,232.679 80.268,233.360 79.929 C 233.648 79.785,234.131 79.667,234.432 79.667 C 234.734 79.667,235.027 79.592,235.083 79.500 C 235.140 79.408,235.363 79.333,235.580 79.333 C 235.796 79.333,236.185 79.228,236.445 79.098 C 236.704 78.969,237.348 78.653,237.875 78.397 C 238.402 78.140,238.833 77.870,238.833 77.798 C 238.833 77.726,238.950 77.667,239.093 77.667 C 239.560 77.667,241.765 75.241,242.310 74.128 C 243.304 72.094,243.333 71.958,243.333 69.333 C 243.333 66.757,243.316 66.671,242.396 64.682 C 241.740 63.263,238.627 60.333,237.776 60.333 C 237.639 60.333,237.503 60.277,237.472 60.208 C 237.387 60.016,236.195 59.500,235.838 59.500 C 235.663 59.500,235.473 59.425,235.417 59.333 C 235.360 59.242,235.135 59.167,234.917 59.167 C 234.698 59.167,234.479 59.101,234.429 59.020 C 234.313 58.833,232.796 58.333,232.344 58.333 C 232.155 58.333,232.000 58.264,232.000 58.180 C 232.000 58.096,231.756 57.977,231.458 57.916 C 230.729 57.768,229.814 57.491,229.461 57.313 C 229.301 57.232,229.015 57.167,228.824 57.167 C 228.633 57.167,228.364 57.054,228.226 56.917 C 228.089 56.779,227.836 56.667,227.665 56.667 C 227.493 56.667,227.307 56.592,227.250 56.500 C 227.193 56.408,226.964 56.333,226.740 56.333 C 226.516 56.333,226.333 56.263,226.333 56.178 C 226.333 56.092,226.165 55.970,225.958 55.905 C 224.995 55.603,223.139 53.966,222.765 53.087 C 222.172 51.692,221.962 50.146,222.333 49.917 C 222.425 49.860,222.500 49.641,222.500 49.430 C 222.500 48.303,225.535 46.182,227.167 46.168 C 227.396 46.166,227.798 46.053,228.061 45.916 C 228.615 45.626,231.332 45.565,231.603 45.836 C 231.696 45.929,232.255 46.077,232.844 46.163 C 234.567 46.417,235.063 46.514,235.417 46.667 C 236.110 46.966,236.937 47.302,237.500 47.512 C 237.821 47.632,238.361 47.901,238.700 48.111 C 239.589 48.662,240.626 48.804,240.777 48.396 C 240.840 48.224,240.943 48.046,241.005 48.000 C 241.541 47.601,242.507 44.953,242.256 44.569 C 242.019 44.207,240.191 43.167,239.792 43.167 C 239.710 43.167,239.530 43.054,239.393 42.917 C 239.255 42.779,239.003 42.667,238.831 42.667 C 238.660 42.667,238.473 42.592,238.417 42.500 C 238.360 42.408,238.146 42.333,237.940 42.333 C 237.735 42.333,237.495 42.263,237.408 42.176 C 237.207 41.976,235.970 41.654,235.000 41.549 C 234.588 41.504,234.179 41.400,234.092 41.317 C 233.870 41.106,226.381 41.122,226.250 41.333 M115.703 41.697 C 115.379 42.021,115.411 79.552,115.735 79.821 C 116.075 80.103,117.033 80.225,117.894 80.095 C 118.987 79.931,119.000 79.854,119.000 73.308 L 119.000 67.667 124.907 67.667 C 128.665 67.667,130.851 67.606,130.917 67.500 C 130.973 67.408,131.582 67.333,132.270 67.333 C 133.467 67.333,134.012 67.214,136.250 66.459 C 139.917 65.223,143.645 61.168,143.664 58.394 C 143.666 58.198,143.779 57.823,143.916 57.561 C 144.274 56.874,144.274 51.793,143.916 51.106 C 143.779 50.843,143.666 50.468,143.664 50.273 C 143.660 49.730,142.842 47.667,142.630 47.667 C 142.559 47.667,142.500 47.571,142.500 47.454 C 142.500 46.650,139.833 44.076,138.167 43.272 C 137.846 43.117,137.471 42.930,137.333 42.855 C 136.547 42.426,136.301 42.333,135.952 42.333 C 135.740 42.333,135.489 42.256,135.394 42.161 C 134.834 41.600,116.238 41.162,115.703 41.697 M133.000 45.292 C 136.752 46.003,139.782 48.604,140.428 51.667 C 140.610 52.534,140.584 56.481,140.391 57.262 C 139.876 59.335,137.036 62.667,135.782 62.667 C 135.649 62.667,135.447 62.779,135.333 62.917 C 135.219 63.054,134.963 63.167,134.763 63.167 C 134.563 63.167,134.329 63.234,134.242 63.316 C 133.911 63.629,132.381 63.712,125.792 63.775 L 119.000 63.841 119.000 54.417 L 119.000 44.992 125.542 45.056 C 129.140 45.090,132.496 45.197,133.000 45.292 M159.667 50.775 C 159.529 50.821,159.267 50.923,159.083 51.003 C 158.900 51.084,158.412 51.182,158.000 51.223 C 153.735 51.642,148.996 55.906,147.690 60.500 C 147.573 60.913,147.407 61.480,147.322 61.762 C 147.120 62.427,147.120 68.406,147.322 69.072 C 147.407 69.353,147.571 69.921,147.686 70.333 C 148.370 72.796,150.604 75.949,152.623 77.304 C 152.968 77.535,153.287 77.768,153.333 77.821 C 153.503 78.016,156.267 79.307,156.750 79.416 C 157.025 79.479,157.587 79.564,158.000 79.607 C 158.412 79.649,158.930 79.774,159.151 79.884 C 159.708 80.161,163.413 80.154,163.692 79.875 C 163.806 79.760,164.198 79.667,164.563 79.667 C 166.624 79.667,170.662 77.393,172.338 75.288 C 173.837 73.405,175.333 70.267,175.333 69.005 C 175.333 68.672,175.412 68.321,175.508 68.225 C 175.721 68.013,175.622 62.984,175.380 61.750 C 175.069 60.158,173.709 57.162,172.883 56.248 C 172.718 56.066,172.369 55.658,172.108 55.343 C 171.346 54.421,169.451 52.963,168.221 52.351 C 167.595 52.040,166.953 51.722,166.794 51.643 C 166.635 51.564,166.320 51.500,166.095 51.500 C 165.870 51.500,165.640 51.425,165.583 51.333 C 165.527 51.242,165.118 51.167,164.676 51.167 C 164.233 51.167,163.657 51.055,163.394 50.918 C 162.932 50.676,160.275 50.575,159.667 50.775 M294.250 50.903 C 294.067 51.042,293.640 51.158,293.302 51.161 C 292.963 51.164,292.640 51.242,292.583 51.333 C 292.527 51.425,292.338 51.500,292.165 51.500 C 291.803 51.500,289.278 52.788,289.194 53.016 C 289.164 53.099,289.036 53.167,288.909 53.167 C 288.168 53.167,285.122 56.774,284.335 58.583 C 284.136 59.042,283.867 59.663,283.736 59.964 C 283.606 60.265,283.500 60.692,283.500 60.912 C 283.500 61.133,283.425 61.360,283.333 61.417 C 283.242 61.473,283.167 62.138,283.167 62.893 C 283.167 63.676,283.087 64.346,282.982 64.451 C 282.866 64.568,282.837 64.935,282.905 65.443 C 282.963 65.887,283.076 66.887,283.155 67.667 C 283.551 71.580,285.894 75.680,288.707 77.381 C 289.006 77.561,289.287 77.755,289.333 77.813 C 289.530 78.058,292.283 79.333,292.615 79.333 C 292.816 79.333,293.027 79.408,293.083 79.500 C 293.140 79.592,293.542 79.667,293.977 79.667 C 294.411 79.667,294.860 79.760,294.975 79.875 C 295.123 80.023,295.902 80.083,297.667 80.083 C 299.431 80.083,300.210 80.023,300.358 79.875 C 300.473 79.760,300.922 79.667,301.357 79.667 C 301.791 79.667,302.193 79.592,302.250 79.500 C 302.307 79.408,302.515 79.333,302.712 79.333 C 303.039 79.333,305.804 78.072,306.000 77.834 C 306.046 77.778,306.350 77.571,306.675 77.373 C 308.002 76.567,310.156 73.895,311.073 71.917 C 311.243 71.550,311.446 71.120,311.525 70.961 C 311.603 70.801,311.669 70.501,311.673 70.294 C 311.676 70.086,311.786 69.729,311.917 69.500 C 312.048 69.271,312.158 68.705,312.161 68.242 C 312.164 67.779,312.247 67.320,312.344 67.223 C 312.689 66.878,312.272 61.372,311.872 60.972 C 311.759 60.859,311.667 60.593,311.667 60.381 C 311.667 60.169,311.602 59.865,311.524 59.706 C 311.445 59.547,311.089 58.823,310.732 58.098 C 310.375 57.373,310.007 56.698,309.914 56.598 C 309.821 56.498,309.489 56.088,309.175 55.687 C 307.912 54.070,304.221 51.500,303.163 51.500 C 302.992 51.500,302.807 51.425,302.750 51.333 C 302.693 51.242,302.358 51.167,302.004 51.167 C 301.638 51.167,301.331 51.077,301.292 50.958 C 301.179 50.618,294.692 50.567,294.250 50.903 M314.038 50.862 C 313.759 51.141,313.782 51.981,314.084 52.561 C 314.221 52.823,314.333 53.137,314.333 53.258 C 314.333 53.379,314.529 53.952,314.768 54.531 C 315.315 55.855,315.283 55.769,316.327 58.719 C 316.580 59.435,316.873 60.106,316.977 60.211 C 317.081 60.315,317.167 60.568,317.167 60.773 C 317.167 60.979,317.242 61.193,317.333 61.250 C 317.425 61.307,317.500 61.493,317.500 61.663 C 317.500 61.833,317.606 62.185,317.735 62.445 C 318.103 63.186,318.299 63.683,318.597 64.628 C 318.749 65.110,318.939 65.546,319.020 65.596 C 319.101 65.646,319.167 65.833,319.167 66.012 C 319.167 66.191,319.234 66.468,319.316 66.627 C 319.398 66.786,319.594 67.254,319.750 67.667 C 319.906 68.079,320.102 68.547,320.184 68.706 C 320.266 68.865,320.336 69.128,320.339 69.289 C 320.341 69.451,320.528 69.958,320.754 70.417 C 320.979 70.875,321.164 71.345,321.165 71.461 C 321.166 71.576,321.234 71.801,321.316 71.961 C 321.398 72.120,321.595 72.587,321.753 73.000 C 321.911 73.412,322.103 73.900,322.180 74.083 C 322.257 74.267,322.445 74.812,322.597 75.294 C 322.749 75.777,322.939 76.213,323.020 76.262 C 323.101 76.312,323.167 76.500,323.167 76.679 C 323.167 76.858,323.233 77.135,323.313 77.294 C 323.635 77.930,324.000 78.856,324.006 79.047 C 324.025 79.770,324.662 80.071,326.306 80.136 C 328.608 80.227,328.989 80.096,329.386 79.075 C 329.562 78.621,329.810 78.014,329.936 77.725 C 330.063 77.436,330.167 77.084,330.167 76.943 C 330.167 76.802,330.242 76.640,330.333 76.583 C 330.425 76.527,330.500 76.302,330.500 76.083 C 330.500 75.865,330.566 75.646,330.647 75.596 C 330.727 75.546,330.832 75.335,330.880 75.127 C 330.928 74.920,331.124 74.339,331.317 73.836 C 331.509 73.333,331.667 72.821,331.667 72.699 C 331.667 72.576,331.779 72.364,331.917 72.226 C 332.054 72.089,332.167 71.850,332.167 71.696 C 332.167 71.541,332.363 70.891,332.604 70.249 C 332.844 69.608,333.191 68.633,333.374 68.083 C 333.556 67.533,333.770 66.957,333.847 66.803 C 333.970 66.559,334.210 65.901,335.173 63.167 C 335.286 62.846,335.443 62.453,335.522 62.294 C 335.602 62.135,335.667 61.858,335.667 61.679 C 335.667 61.500,335.731 61.313,335.809 61.265 C 335.888 61.216,336.200 60.428,336.504 59.512 C 337.040 57.896,337.473 57.543,337.495 58.703 C 337.498 58.860,337.623 59.272,337.773 59.619 C 338.171 60.538,338.269 60.812,338.582 61.875 C 338.737 62.402,338.932 62.833,339.016 62.833 C 339.099 62.833,339.167 62.966,339.167 63.127 C 339.167 63.289,339.321 63.833,339.511 64.336 C 339.700 64.839,340.083 65.944,340.363 66.792 C 340.643 67.640,340.938 68.333,341.019 68.333 C 341.100 68.333,341.167 68.543,341.167 68.800 C 341.167 69.057,341.226 69.338,341.299 69.425 C 341.372 69.512,341.531 69.883,341.652 70.250 C 341.773 70.617,341.967 71.142,342.083 71.417 C 342.200 71.692,342.423 72.348,342.579 72.875 C 342.736 73.402,342.932 73.875,343.015 73.926 C 343.099 73.978,343.167 74.166,343.167 74.345 C 343.167 74.525,343.232 74.801,343.311 74.961 C 343.460 75.260,343.531 75.453,344.364 77.833 C 345.159 80.108,346.068 80.544,349.076 80.093 C 349.962 79.960,349.933 80.012,351.397 75.917 C 351.593 75.367,351.802 74.842,351.861 74.750 C 351.920 74.658,352.208 73.908,352.501 73.083 C 353.462 70.382,353.759 69.588,353.935 69.250 C 354.030 69.067,354.206 68.579,354.326 68.167 C 354.445 67.754,354.659 67.154,354.800 66.833 C 355.249 65.814,355.667 64.598,355.667 64.308 C 355.667 64.154,355.735 64.003,355.819 63.972 C 355.903 63.942,356.195 63.279,356.469 62.500 C 356.744 61.721,357.125 60.672,357.317 60.169 C 357.509 59.666,357.667 59.122,357.667 58.961 C 357.667 58.799,357.740 58.667,357.830 58.667 C 357.920 58.667,358.038 58.460,358.093 58.208 C 358.148 57.956,358.253 57.600,358.327 57.417 C 358.401 57.233,358.658 56.596,358.898 56.000 C 359.138 55.404,359.334 54.822,359.334 54.706 C 359.334 54.590,359.400 54.365,359.482 54.206 C 359.564 54.047,359.728 53.692,359.846 53.417 C 360.956 50.835,360.837 50.667,357.902 50.667 L 355.828 50.667 355.498 51.208 C 355.317 51.506,355.168 51.919,355.167 52.125 C 355.167 52.331,355.106 52.500,355.032 52.500 C 354.957 52.500,354.762 52.969,354.598 53.542 C 354.434 54.115,354.203 54.808,354.084 55.083 C 353.964 55.358,353.700 56.108,353.497 56.750 C 353.293 57.392,353.036 58.104,352.926 58.333 C 352.815 58.563,352.628 59.087,352.510 59.500 C 352.263 60.364,352.150 60.676,351.773 61.547 C 351.623 61.894,351.500 62.321,351.500 62.496 C 351.500 62.671,351.425 62.860,351.333 62.917 C 351.242 62.973,351.167 63.159,351.167 63.330 C 351.167 63.500,351.062 63.852,350.933 64.111 C 350.805 64.371,350.613 64.883,350.506 65.250 C 350.296 65.968,350.195 66.240,349.773 67.214 C 349.623 67.561,349.500 67.988,349.500 68.162 C 349.500 68.337,349.425 68.527,349.333 68.583 C 349.242 68.640,349.167 68.875,349.167 69.105 C 349.167 69.335,349.054 69.636,348.917 69.774 C 348.779 69.911,348.666 70.150,348.666 70.304 C 348.664 70.752,347.736 73.227,347.546 73.290 C 347.451 73.322,347.336 73.138,347.290 72.882 C 347.244 72.626,346.894 71.554,346.512 70.500 C 346.130 69.446,345.699 68.208,345.555 67.750 C 345.265 66.831,344.903 65.907,344.659 65.461 C 344.571 65.301,344.500 64.987,344.500 64.762 C 344.500 64.537,344.425 64.307,344.333 64.250 C 344.242 64.193,344.166 64.020,344.166 63.865 C 344.165 63.710,344.053 63.369,343.916 63.106 C 343.779 62.843,343.667 62.524,343.667 62.395 C 343.667 62.267,343.596 62.032,343.510 61.873 C 343.232 61.357,342.500 59.251,342.500 58.965 C 342.500 58.812,342.425 58.640,342.333 58.583 C 342.242 58.527,342.167 58.328,342.167 58.141 C 342.167 57.954,342.064 57.602,341.938 57.359 C 341.812 57.116,341.619 56.617,341.509 56.250 C 341.398 55.883,341.133 55.133,340.919 54.583 C 340.705 54.033,340.405 53.171,340.251 52.667 C 340.097 52.163,339.841 51.525,339.681 51.250 L 339.390 50.750 337.210 50.704 L 335.029 50.657 334.681 51.146 C 334.490 51.415,334.333 51.788,334.333 51.974 C 334.333 52.161,334.258 52.360,334.167 52.417 C 334.075 52.473,334.000 52.635,334.000 52.776 C 334.000 52.917,333.897 53.269,333.772 53.558 C 333.646 53.847,333.444 54.421,333.323 54.833 C 333.202 55.246,333.005 55.731,332.885 55.912 C 332.765 56.093,332.667 56.375,332.667 56.539 C 332.667 56.704,332.599 56.968,332.515 57.127 C 332.432 57.286,332.249 57.792,332.109 58.250 C 331.750 59.425,331.479 60.203,331.311 60.539 C 331.232 60.699,331.167 60.975,331.167 61.155 C 331.167 61.334,331.099 61.522,331.015 61.574 C 330.932 61.625,330.738 62.098,330.584 62.625 C 330.429 63.152,330.122 64.033,329.901 64.583 C 329.680 65.133,329.499 65.710,329.500 65.865 C 329.500 66.020,329.425 66.193,329.333 66.250 C 329.242 66.307,329.167 66.541,329.167 66.772 C 329.167 67.002,329.054 67.303,328.917 67.440 C 328.779 67.578,328.667 67.868,328.667 68.085 C 328.667 68.303,328.592 68.527,328.500 68.583 C 328.408 68.640,328.333 68.892,328.333 69.143 C 328.333 69.394,328.268 69.671,328.187 69.758 C 328.107 69.845,327.835 70.554,327.584 71.333 C 326.973 73.228,326.500 73.978,326.500 73.053 C 326.500 72.884,326.347 72.334,326.160 71.831 C 325.972 71.328,325.589 70.242,325.308 69.417 C 325.027 68.592,324.730 67.845,324.648 67.758 C 324.567 67.671,324.500 67.394,324.500 67.143 C 324.500 66.892,324.425 66.640,324.333 66.583 C 324.242 66.527,324.167 66.303,324.167 66.085 C 324.167 65.868,324.054 65.578,323.917 65.440 C 323.779 65.303,323.667 65.002,323.667 64.772 C 323.667 64.541,323.601 64.312,323.520 64.262 C 323.439 64.212,323.335 64.002,323.289 63.794 C 323.243 63.587,322.979 62.779,322.703 62.000 C 322.426 61.221,322.153 60.377,322.097 60.125 C 322.040 59.873,321.920 59.667,321.830 59.667 C 321.740 59.667,321.667 59.446,321.667 59.177 C 321.667 58.907,321.592 58.640,321.500 58.583 C 321.408 58.527,321.333 58.312,321.333 58.107 C 321.333 57.901,321.268 57.662,321.187 57.575 C 321.107 57.488,320.836 56.779,320.585 56.000 C 320.335 55.221,320.031 54.358,319.910 54.083 C 319.790 53.808,319.602 53.283,319.494 52.917 C 319.385 52.550,319.132 51.913,318.932 51.500 L 318.568 50.750 316.405 50.704 C 314.865 50.671,314.184 50.716,314.038 50.862 M368.574 50.911 C 368.396 51.046,368.080 51.158,367.871 51.161 C 365.990 51.188,362.824 53.913,362.308 55.951 C 362.220 56.299,362.070 56.883,361.975 57.250 C 361.776 58.014,361.910 60.477,362.164 60.730 C 362.257 60.824,362.333 61.038,362.333 61.207 C 362.333 62.436,365.616 65.658,366.875 65.665 C 367.035 65.666,367.167 65.726,367.167 65.799 C 367.167 65.872,367.598 66.066,368.125 66.232 C 368.652 66.398,369.198 66.591,369.339 66.662 C 369.479 66.733,369.835 66.844,370.129 66.908 C 370.422 66.973,370.706 67.095,370.758 67.179 C 370.810 67.264,371.012 67.333,371.206 67.333 C 371.720 67.333,373.033 67.782,374.206 68.358 C 374.365 68.436,374.614 68.500,374.759 68.500 C 375.030 68.500,376.156 69.222,376.750 69.776 C 377.339 70.325,377.500 70.803,377.500 72.000 C 377.500 73.466,377.321 73.825,376.167 74.684 C 375.612 75.096,375.288 75.228,373.750 75.668 C 372.793 75.942,368.636 75.677,368.258 75.317 C 368.171 75.234,367.976 75.167,367.825 75.167 C 367.673 75.167,367.197 74.979,366.766 74.750 C 366.335 74.521,365.874 74.333,365.741 74.333 C 365.609 74.333,365.500 74.272,365.500 74.198 C 365.500 74.123,365.256 73.936,364.958 73.782 C 364.219 73.400,363.843 73.150,363.344 72.708 C 362.616 72.064,361.929 72.393,361.387 73.644 C 361.222 74.023,361.037 74.333,360.974 74.333 C 360.701 74.333,360.479 75.482,360.677 75.867 C 361.051 76.594,362.443 77.640,364.000 78.362 C 365.718 79.160,366.178 79.333,366.579 79.333 C 366.800 79.333,367.027 79.408,367.083 79.500 C 367.140 79.592,367.542 79.667,367.977 79.667 C 368.411 79.667,368.860 79.760,368.975 79.875 C 369.269 80.169,374.231 80.169,374.525 79.875 C 374.640 79.760,374.957 79.667,375.230 79.667 C 377.218 79.667,380.552 77.483,381.661 75.454 C 382.339 74.213,382.816 70.250,382.344 69.778 C 382.247 69.680,382.165 69.409,382.163 69.175 C 382.152 67.967,379.769 65.354,377.917 64.520 C 377.642 64.396,377.286 64.228,377.126 64.146 C 376.570 63.863,374.356 63.167,374.012 63.167 C 373.822 63.167,373.667 63.093,373.667 63.002 C 373.667 62.911,373.365 62.789,372.996 62.730 C 372.628 62.671,372.286 62.558,372.236 62.478 C 372.187 62.398,371.945 62.331,371.698 62.328 C 371.452 62.325,371.104 62.213,370.926 62.078 C 370.749 61.943,370.501 61.833,370.377 61.833 C 370.252 61.833,369.840 61.683,369.461 61.500 C 369.081 61.317,368.701 61.167,368.616 61.167 C 368.531 61.167,368.095 60.783,367.647 60.313 C 366.082 58.672,366.666 56.173,368.773 55.495 C 369.127 55.380,369.570 55.218,369.758 55.134 C 370.396 54.846,375.537 55.167,375.908 55.517 C 375.995 55.599,376.186 55.667,376.333 55.667 C 376.479 55.667,377.112 55.929,377.738 56.250 C 379.548 57.177,379.812 57.107,380.643 55.487 C 381.300 54.205,381.476 53.455,381.206 53.079 C 381.007 52.803,380.199 52.333,379.923 52.333 C 379.782 52.333,379.667 52.264,379.667 52.180 C 379.667 52.096,379.443 51.977,379.169 51.917 C 378.895 51.857,378.628 51.738,378.575 51.654 C 378.523 51.569,378.264 51.500,378.000 51.500 C 377.736 51.500,377.473 51.425,377.417 51.333 C 377.360 51.242,377.074 51.164,376.782 51.161 C 376.489 51.158,376.104 51.046,375.926 50.911 C 375.667 50.715,374.940 50.667,372.250 50.667 C 369.560 50.667,368.833 50.715,368.574 50.911 M163.250 54.433 C 163.800 54.490,164.321 54.603,164.408 54.685 C 164.495 54.766,164.672 54.833,164.800 54.833 C 165.090 54.833,166.992 55.646,167.167 55.844 C 167.212 55.896,167.607 56.181,168.043 56.478 C 168.941 57.090,170.324 58.674,170.654 59.469 C 170.775 59.761,170.940 60.000,171.020 60.000 C 171.101 60.000,171.167 60.114,171.167 60.252 C 171.167 60.391,171.232 60.635,171.313 60.794 C 171.585 61.333,171.846 62.305,171.947 63.159 C 172.002 63.627,172.112 64.049,172.190 64.098 C 172.269 64.147,172.333 64.740,172.333 65.417 C 172.333 66.093,172.269 66.687,172.190 66.735 C 172.112 66.784,172.002 67.206,171.947 67.674 C 171.846 68.528,171.585 69.501,171.313 70.039 C 171.232 70.199,171.167 70.442,171.167 70.581 C 171.167 70.720,171.097 70.833,171.011 70.833 C 170.926 70.833,170.803 71.001,170.738 71.205 C 170.261 72.707,166.657 75.833,165.402 75.833 C 165.346 75.833,165.064 75.940,164.775 76.071 C 163.373 76.706,158.832 76.701,157.921 76.063 C 157.740 75.937,157.496 75.833,157.378 75.833 C 157.086 75.833,155.636 75.149,155.363 74.882 C 155.242 74.763,155.080 74.667,155.003 74.667 C 154.669 74.667,152.643 72.427,152.108 71.468 C 151.594 70.544,151.355 69.928,150.662 67.738 C 150.461 67.102,150.448 63.653,150.645 63.133 C 150.725 62.922,150.929 62.300,151.098 61.750 C 151.552 60.276,152.541 58.496,153.417 57.575 C 154.415 56.525,157.193 54.833,157.918 54.833 C 158.044 54.833,158.193 54.758,158.250 54.667 C 158.307 54.575,158.780 54.499,159.302 54.497 C 159.823 54.496,160.362 54.419,160.500 54.326 C 160.637 54.232,161.087 54.195,161.500 54.243 C 161.912 54.291,162.700 54.377,163.250 54.433 M196.417 54.411 C 196.783 54.471,197.233 54.584,197.417 54.662 C 202.932 57.002,205.219 60.892,204.653 66.975 C 204.341 70.338,203.156 72.472,200.333 74.753 C 199.724 75.246,197.532 76.243,196.667 76.421 C 195.632 76.634,191.967 76.701,191.777 76.510 C 191.679 76.413,191.315 76.333,190.967 76.333 C 190.618 76.333,190.333 76.258,190.333 76.167 C 190.333 76.075,190.247 76.000,190.142 76.000 C 189.938 76.000,188.140 75.164,188.000 75.004 C 187.954 74.952,187.705 74.774,187.446 74.609 C 185.983 73.677,183.667 70.429,183.667 69.309 C 183.667 69.150,183.601 68.979,183.520 68.929 C 182.571 68.343,183.141 62.271,184.361 59.966 C 185.153 58.470,187.374 56.000,187.926 56.000 C 188.043 56.000,188.164 55.944,188.194 55.875 C 188.225 55.806,188.700 55.533,189.250 55.269 C 189.800 55.004,190.380 54.723,190.539 54.644 C 190.699 54.565,191.074 54.499,191.373 54.497 C 191.672 54.496,192.029 54.420,192.167 54.328 C 192.424 54.155,195.196 54.210,196.417 54.411 M299.750 55.257 C 300.208 55.317,300.655 55.433,300.742 55.516 C 300.829 55.599,301.036 55.667,301.203 55.667 C 301.370 55.667,301.804 55.854,302.167 56.083 C 302.530 56.313,302.900 56.500,302.989 56.500 C 303.421 56.500,305.802 59.128,306.235 60.083 C 306.484 60.633,306.796 61.296,306.927 61.555 C 307.059 61.815,307.167 62.279,307.167 62.587 C 307.167 62.895,307.242 63.193,307.333 63.250 C 307.429 63.309,307.500 64.193,307.500 65.333 C 307.500 66.474,307.429 67.357,307.333 67.417 C 307.242 67.473,307.167 67.800,307.167 68.143 C 307.167 68.486,307.104 68.838,307.028 68.925 C 306.951 69.012,306.752 69.458,306.586 69.917 C 305.941 71.696,303.184 74.641,302.145 74.661 C 301.996 74.664,301.788 74.771,301.682 74.899 C 301.155 75.533,294.312 75.630,293.833 75.009 C 293.787 74.950,293.314 74.691,292.782 74.433 C 290.535 73.348,288.181 69.981,288.168 67.833 C 288.166 67.512,288.053 67.035,287.916 66.773 C 287.779 66.510,287.667 65.862,287.667 65.333 C 287.667 64.804,287.779 64.157,287.916 63.894 C 288.053 63.631,288.166 63.154,288.168 62.833 C 288.172 62.259,288.496 61.115,288.719 60.892 C 288.782 60.829,288.833 60.676,288.833 60.552 C 288.833 59.366,292.881 55.667,294.179 55.667 C 294.345 55.667,294.527 55.592,294.583 55.500 C 294.640 55.408,295.001 55.332,295.385 55.331 C 295.769 55.329,296.196 55.252,296.333 55.160 C 296.577 54.995,298.057 55.038,299.750 55.257 " stroke="none" fill="#040404" fill-rule="evenodd"></path><path id="path1" d="M92.577 26.736 C 92.218 27.284,93.309 27.009,77.917 30.437 C 58.875 34.679,46.272 37.532,21.350 43.242 C 16.730 44.301,12.811 45.167,12.642 45.167 C 12.349 45.167,12.333 45.400,12.333 49.667 C 12.333 53.867,12.353 54.167,12.629 54.167 C 12.889 54.167,57.254 44.349,61.833 43.278 C 62.796 43.053,66.396 42.223,69.833 41.434 C 73.271 40.645,78.858 39.360,82.250 38.579 C 85.642 37.798,91.679 36.413,95.667 35.502 C 99.654 34.591,103.265 33.725,103.691 33.579 L 104.466 33.314 104.108 32.932 C 103.800 32.604,103.278 32.281,101.417 31.265 C 101.233 31.165,101.046 31.045,101.000 30.998 C 100.954 30.952,100.617 30.764,100.250 30.582 C 99.883 30.399,99.546 30.207,99.500 30.154 C 99.454 30.101,99.004 29.839,98.500 29.571 C 97.996 29.304,97.546 29.043,97.500 28.991 C 97.419 28.900,96.464 28.345,95.068 27.578 C 94.693 27.372,94.075 27.008,93.696 26.769 C 92.859 26.240,92.901 26.241,92.577 26.736 M12.334 70.375 L 12.335 74.917 12.959 74.952 C 13.302 74.971,14.408 75.182,15.417 75.420 C 19.681 76.429,44.029 81.984,57.750 85.079 C 67.346 87.244,91.760 92.667,91.909 92.667 C 91.969 92.667,92.226 92.893,92.479 93.170 L 92.939 93.674 94.428 92.814 C 95.247 92.341,96.150 91.822,96.435 91.660 C 97.960 90.793,103.708 87.477,103.993 87.299 C 104.177 87.184,104.365 86.991,104.412 86.870 C 104.458 86.749,104.422 86.695,104.331 86.751 C 104.241 86.807,104.167 86.792,104.167 86.717 C 104.167 86.504,103.261 86.266,97.313 84.915 C 94.253 84.219,91.150 83.509,90.417 83.336 C 89.683 83.163,86.946 82.532,84.333 81.934 C 81.721 81.336,74.671 79.715,68.667 78.332 C 57.449 75.747,12.935 65.833,12.549 65.833 C 12.378 65.833,12.334 66.772,12.334 70.375 " stroke="none" fill="#f7f9fa" fill-rule="evenodd"></path><path id="path2" d="M57.833 6.781 C 57.696 6.837,57.546 6.928,57.500 6.983 C 57.454 7.038,56.949 7.308,56.378 7.583 C 55.806 7.858,55.338 8.140,55.336 8.208 C 55.335 8.277,55.269 8.333,55.191 8.333 C 55.047 8.333,52.233 9.913,51.913 10.173 C 51.819 10.249,51.332 10.530,50.830 10.797 C 49.647 11.425,48.627 12.003,48.417 12.162 C 48.325 12.232,47.913 12.476,47.500 12.705 C 47.087 12.933,46.083 13.506,45.268 13.977 C 44.453 14.448,43.752 14.833,43.710 14.833 C 43.669 14.833,43.436 14.973,43.192 15.143 C 42.815 15.408,42.137 15.796,40.417 16.735 C 40.233 16.835,40.046 16.960,40.000 17.013 C 39.954 17.066,39.429 17.373,38.833 17.695 C 38.237 18.017,37.075 18.678,36.250 19.164 C 35.425 19.649,34.412 20.235,34.000 20.466 C 33.587 20.697,32.970 21.062,32.628 21.276 C 32.286 21.491,31.941 21.667,31.861 21.667 C 31.781 21.667,31.527 21.835,31.297 22.042 C 31.067 22.248,30.774 22.441,30.647 22.470 C 30.521 22.499,29.667 22.960,28.750 23.493 C 27.833 24.026,26.821 24.611,26.500 24.792 C 26.179 24.973,25.250 25.506,24.434 25.977 C 23.619 26.448,22.888 26.833,22.809 26.833 C 22.731 26.833,22.666 26.890,22.666 26.958 C 22.666 27.027,22.235 27.306,21.708 27.577 C 21.181 27.849,20.712 28.111,20.667 28.160 C 20.621 28.210,20.321 28.394,20.000 28.571 C 19.679 28.747,19.379 28.937,19.333 28.992 C 19.287 29.047,18.929 29.234,18.536 29.408 C 18.143 29.581,17.647 29.879,17.433 30.070 C 17.220 30.260,16.941 30.441,16.814 30.471 C 16.471 30.552,14.870 31.488,14.583 31.775 C 14.445 31.912,14.333 31.978,14.333 31.922 C 14.333 31.768,12.782 32.680,12.542 32.975 C 12.153 33.451,12.249 45.167,12.642 45.167 C 12.811 45.167,16.730 44.301,21.350 43.242 C 46.272 37.532,58.875 34.679,77.917 30.437 C 93.297 27.012,92.218 27.284,92.574 26.740 C 92.819 26.366,92.813 26.329,92.459 26.118 C 92.253 25.994,91.685 25.655,91.197 25.363 C 90.710 25.072,90.285 24.833,90.253 24.833 C 90.220 24.833,89.419 24.376,88.472 23.816 C 85.851 22.267,85.052 21.840,84.938 21.923 C 84.880 21.966,84.869 21.952,84.913 21.893 C 84.990 21.789,82.568 20.333,82.319 20.333 C 82.250 20.333,82.169 20.277,82.139 20.208 C 82.108 20.140,81.671 19.864,81.167 19.596 C 80.662 19.329,80.212 19.065,80.167 19.012 C 80.121 18.958,79.783 18.764,79.417 18.582 C 79.050 18.399,78.712 18.207,78.667 18.154 C 78.621 18.101,78.171 17.839,77.667 17.571 C 77.162 17.304,76.712 17.048,76.667 17.001 C 76.621 16.955,76.433 16.835,76.250 16.735 C 74.560 15.813,73.892 15.437,73.750 15.329 C 73.583 15.202,73.288 15.034,71.417 14.004 C 70.867 13.701,70.229 13.324,70.000 13.167 C 69.771 13.010,69.246 12.693,68.833 12.464 C 68.421 12.234,67.408 11.652,66.583 11.169 C 65.758 10.687,64.596 10.027,64.000 9.703 C 63.404 9.380,62.729 8.987,62.500 8.831 C 62.145 8.589,61.421 8.177,59.750 7.265 C 59.567 7.165,59.373 7.024,59.320 6.952 C 59.188 6.774,58.142 6.653,57.833 6.781 M103.583 33.602 C 103.217 33.736,99.654 34.592,95.667 35.503 C 91.679 36.413,85.642 37.798,82.250 38.579 C 78.858 39.360,73.271 40.645,69.833 41.434 C 66.396 42.223,62.796 43.053,61.833 43.278 C 57.254 44.349,12.889 54.167,12.629 54.167 C 12.351 54.167,12.333 54.520,12.334 59.958 L 12.335 65.750 35.126 70.802 C 47.661 73.581,62.454 76.901,68.000 78.181 C 73.546 79.460,80.071 80.962,82.500 81.517 C 84.929 82.073,87.667 82.701,88.583 82.913 C 89.500 83.125,93.087 83.945,96.556 84.736 C 103.248 86.262,104.167 86.501,104.167 86.717 C 104.167 86.792,104.242 86.807,104.333 86.750 C 104.530 86.628,104.572 33.327,104.375 33.345 C 104.306 33.352,103.950 33.467,103.583 33.602 M12.446 74.942 C 12.224 75.165,12.316 86.748,12.542 87.025 C 12.776 87.311,15.779 89.109,16.166 89.195 C 16.303 89.225,16.491 89.338,16.583 89.446 C 16.675 89.554,18.006 90.360,19.542 91.237 C 21.078 92.114,23.590 93.556,25.126 94.441 C 26.661 95.327,28.667 96.477,29.583 96.997 C 31.167 97.897,33.963 99.510,34.500 99.835 C 34.637 99.919,35.387 100.353,36.167 100.801 C 36.946 101.250,38.033 101.879,38.583 102.200 C 41.655 103.994,43.273 104.886,43.458 104.887 C 43.573 104.888,43.631 104.925,43.587 104.969 C 43.503 105.053,51.154 109.500,51.382 109.500 C 51.429 109.500,51.857 109.763,52.333 110.083 C 52.810 110.404,53.299 110.667,53.420 110.667 C 53.540 110.667,53.664 110.724,53.694 110.794 C 53.725 110.865,54.313 111.251,55.000 111.653 C 55.688 112.055,56.543 112.569,56.901 112.795 C 57.879 113.412,58.698 113.467,59.459 112.965 C 59.802 112.739,60.533 112.305,61.083 112.002 C 61.633 111.698,62.121 111.405,62.167 111.350 C 62.212 111.295,62.512 111.121,62.833 110.964 C 63.154 110.807,63.792 110.459,64.250 110.190 C 64.708 109.922,65.663 109.367,66.371 108.958 C 67.079 108.549,67.623 108.166,67.579 108.107 C 67.536 108.048,67.547 108.035,67.605 108.077 C 67.719 108.161,68.065 107.976,71.360 106.071 C 72.583 105.365,73.832 104.646,74.135 104.474 C 74.438 104.302,75.226 103.851,75.885 103.472 C 76.544 103.093,77.421 102.593,77.833 102.360 C 78.246 102.127,78.621 101.894,78.667 101.843 C 78.712 101.792,79.050 101.601,79.417 101.419 C 79.783 101.237,80.473 100.843,80.950 100.544 C 81.427 100.245,81.885 100.000,81.968 100.000 C 82.050 100.000,82.306 99.831,82.537 99.625 C 82.767 99.419,83.023 99.237,83.105 99.221 C 83.257 99.192,83.820 98.878,87.718 96.640 C 88.377 96.262,89.367 95.694,89.917 95.379 C 90.467 95.064,91.056 94.681,91.226 94.528 C 91.396 94.375,91.546 94.287,91.559 94.333 C 91.572 94.378,91.867 94.248,92.214 94.043 C 92.828 93.681,92.838 93.661,92.579 93.266 C 92.224 92.725,93.419 93.027,78.617 89.740 C 59.086 85.403,29.425 78.686,15.500 75.447 C 13.169 74.905,12.581 74.808,12.446 74.942 " stroke="none" fill="#216cb0" fill-rule="evenodd"></path></g></svg>