<svg xmlns="http://www.w3.org/2000/svg" width="341.333" height="341.333" viewBox="0 0 256 256" preserveAspectRatio="xMidYMid meet"><path d="M1111 2545c-184-40-312-108-445-234-117-112-205-257-240-395-25-97-39-225-32-302l7-71-77-38c-42-20-88-48-100-61l-24-23V932c0-453 1-490 18-504 24-22 81-50 197-96l315-127C1117 49 1250 0 1284 0c19 0 67 13 107 29 938 373 941 374 962 410 15 26 17 74 17 496 0 412-2 470-16 494-11 18-47 43-100 69l-84 42v112c0 62-7 147-15 189-80 420-444 721-870 718-60 0-139-7-174-14zm295-206c234-43 429-209 516-441 30-79 32-91 32-228 1-123-2-156-21-216-13-39-31-82-42-95-14-18-102-58-313-143l-294-118-299 120c-291 116-298 120-317 156-58 113-79 329-44 461 35 133 97 236 199 332 159 148 371 211 583 172zM775 1074l397-157 108-42V548c0-181-2-328-5-328-8 0-747 292-827 327l-38 16v657l38-15c20-9 167-68 327-131zm390 980c-287-92-375-451-163-663 257-257 695-60 676 303-5 102-37 175-109 251-77 81-154 116-266 121-62 3-103-1-138-12zm179-283c66-43 75-119 23-175-18-19-45-38-60-42-45-11-98 16-124 61-29 51-29 74 0 116 40 60 106 76 161 40z" transform="matrix(.1 0 0 -.1 0 256)"/></svg>