<svg xmlns="http://www.w3.org/2000/svg" xmlns:xlink="http://www.w3.org/1999/xlink" width="377.953" height="302.362" viewBox="0 0 100 80"><path d="M118.9 13.3a15.21 15.21 0 0 0-10.7-10.7C98.7 0 60.7 0 60.7 0s-38 0-47.5 2.5C8.1 3.9 3.9 8.1 2.5 13.3 0 22.8 0 42.5 0 42.5s0 19.8 2.5 29.2a15.21 15.21 0 0 0 10.7 10.7C22.8 85 60.7 85 60.7 85s38 0 47.5-2.5a15.21 15.21 0 0 0 10.7-10.7c2.5-9.5 2.5-29.2 2.5-29.2s.1-19.8-2.5-29.3z" fill="#3052b3" transform="matrix(.544004 0 0 .549739 16.591623 2.9108)"/><g fill="#fff" fill-rule="evenodd"><path d="M32.05 25.865h0a.76.76 0 0 1 .762-.762h0a.76.76 0 0 1 .762.762v.866a.76.76 0 0 1-.762.762h0a.76.76 0 0 1-.762-.762zM49.218 10h0a.76.76 0 0 1 .761-.761h0a.76.76 0 0 1 .761.761v32.477a.76.76 0 0 1-.761.761h0a.76.76 0 0 1-.761-.761zm2.452 2.327h0a.76.76 0 0 1 .761-.761h0a.76.76 0 0 1 .761.761V40.26a.76.76 0 0 1-.761.761h0a.76.76 0 0 1-.761-.761z"/><use xlink:href="#B"/><use xlink:href="#B" x="2.453"/><path d="M46.766 16.6h0a.76.76 0 0 1 .761-.761h0a.76.76 0 0 1 .761.761v19.398a.76.76 0 0 1-.761.761h0a.76.76 0 0 1-.761-.761z"/><use xlink:href="#B" x="12.262" y="-0.052"/><path d="M56.497 23.47h0a.76.76 0 0 1 .761-.761h0a.76.76 0 0 1 .761.761v5.55a.76.76 0 0 1-.761.761h0a.76.76 0 0 1-.761-.761zm2.333-.758h0a.76.76 0 0 1 .761-.761h0a.76.76 0 0 1 .761.761v7.174a.76.76 0 0 1-.761.761h0a.76.76 0 0 1-.761-.761zm2.23 1.8h0a.76.76 0 0 1 .761-.761h0a.76.76 0 0 1 .761.761v3.552a.76.76 0 0 1-.761.761h0a.76.76 0 0 1-.761-.761zm2.18.842h0a.76.76 0 0 1 .761-.761h0a.76.76 0 0 1 .761.761v1.764a.76.76 0 0 1-.761.761h0a.76.76 0 0 1-.761-.761zm2.18.5h0a.76.76 0 0 1 .761-.761h0a.76.76 0 0 1 .761.761v.867a.76.76 0 0 1-.761.761h0a.76.76 0 0 1-.761-.761zm-24.485-2.34h0a.76.76 0 0 0-.761-.761h0a.76.76 0 0 0-.761.761v5.55a.76.76 0 0 0 .761.761h0a.76.76 0 0 0 .761-.761zm-2.453.26h0c0-.422-.342-.764-.764-.764h0a.76.76 0 0 0-.54.224c-.143.144-.224.338-.224.54v5.032c0 .422.342.764.764.764h0c.422 0 .764-.342.764-.764zm-2.454.688h0a.76.76 0 0 0-.762-.762h0a.76.76 0 0 0-.762.762v3.55a.76.76 0 0 0 .762.762h0a.76.76 0 0 0 .762-.762z"/></g><path d="M59.906 59.046c1.18.02 2.105.36 2.778 1.02s1 1.54 1 2.643c0 1.122-.332 1.982-.996 2.577s-1.628.9-2.9.9h-4.265v-7.128zm-7.914-2.862v20.43h3.55v-7.6h4.223c2.367 0 4.206-.557 5.52-1.67s1.974-2.67 1.974-4.672c0-1.955-.672-3.526-2.016-4.714s-3.152-1.782-5.435-1.782zm24.26 7.703c1.132 0 2.027.45 2.685 1.347s.992 2.114.992 3.648c0 1.73-.32 3.045-.963 3.943S77.43 74.17 76.28 74.17s-2.05-.44-2.694-1.324-.968-2.1-.968-3.67c0-1.76.327-3.08.982-3.96a3.14 3.14 0 0 1 2.652-1.328zm0-2.736c-1.384 0-2.6.32-3.676.963s-1.894 1.556-2.484 2.75-.884 2.53-.884 4.018v.168c0 2.376.642 4.278 1.927 5.706s3.003 2.137 5.145 2.137c1.403 0 2.64-.323 3.7-.968s1.896-1.557 2.47-2.736.865-2.516.865-4.013l-.014-.8c-.103-2.18-.794-3.93-2.072-5.248s-2.94-1.978-4.987-1.978zm16.177 2.792c1.394 0 2.404.608 3.03 1.824v6.482c-.645 1.244-1.665 1.866-3.06 1.866-1.094 0-1.94-.432-2.535-1.296s-.9-2.072-.9-3.615c0-1.76.3-3.074.898-3.947s1.45-1.314 2.554-1.314zm3.03-8.882v7.773c-.992-1.122-2.292-1.684-3.9-1.684-1.824 0-3.28.7-4.364 2.128S85.57 66.57 85.57 68.9c0 2.46.55 4.406 1.646 5.837s2.54 2.147 4.317 2.147c1.702 0 3.063-.617 4.083-1.852l.168 1.57h3.087V55.06z" fill-rule="evenodd" fill="#3052b3"/><path d="M25.726 63.885c1.132 0 2.027.45 2.685 1.347s.992 2.114.992 3.648c0 1.73-.32 3.045-.963 3.943s-1.534 1.347-2.685 1.347-2.05-.44-2.694-1.324-.968-2.1-.968-3.67c0-1.76.327-3.08.982-3.96a3.14 3.14 0 0 1 2.652-1.328zM1.073 56.182l6.86 12.9v7.52h3.564V69.1l6.847-12.9h-3.93l-4.7 9.68-4.7-9.68zm24.653 4.967c-1.384 0-2.6.32-3.676.963s-1.894 1.556-2.483 2.75-.884 2.53-.884 4.018v.168c0 2.376.642 4.278 1.927 5.706s3.003 2.137 5.145 2.137c1.403 0 2.64-.323 3.7-.968s1.896-1.557 2.47-2.736.865-2.516.865-4.013l-.014-.8c-.103-2.18-.794-3.93-2.072-5.248s-2.937-1.978-4.986-1.978zm9.878.28v9.836c0 1.824.422 3.218 1.267 4.18s2.095 1.445 3.742 1.445c1.843 0 3.265-.6 4.265-1.768l.084 1.487h3.213V61.43h-3.4v10.9c-.58 1.188-1.698 1.782-3.353 1.782-1.6 0-2.4-.963-2.4-2.9V61.43z" fill-rule="evenodd" fill="#434343"/><defs ><path id="B" d="M41.862 15.22h0a.76.76 0 0 1 .761-.761h0a.76.76 0 0 1 .761.761v22.16a.76.76 0 0 1-.761.761h0a.76.76 0 0 1-.761-.761z"/></defs></svg>